<svg xmlns="http://www.w3.org/2000/svg" xmlns:xlink="http://www.w3.org/1999/xlink" viewBox="0 0 950.76 309.96"><defs><style>.cls-1,.cls-12,.cls-17,.cls-7{fill:#fff;}.cls-1,.cls-10,.cls-3,.cls-6{stroke:#231f20;}.cls-1,.cls-10,.cls-11,.cls-12,.cls-14,.cls-16,.cls-17,.cls-18,.cls-19,.cls-23,.cls-27,.cls-3,.cls-5,.cls-6{stroke-linecap:round;stroke-linejoin:round;stroke-width:0.8px;}.cls-14,.cls-2{fill:#dfa36a;}.cls-20,.cls-3{fill:#e0a46a;}.cls-4{fill:#363957;}.cls-5{fill:#f6f5e6;}.cls-11,.cls-12,.cls-14,.cls-18,.cls-5{stroke:#020202;}.cls-13,.cls-16,.cls-18,.cls-19,.cls-23,.cls-6{fill:none;}.cls-8{clip-path:url(#clip-path);}.cls-9{fill:#efd1b4;}.cls-10,.cls-22{fill:#231f20;}.cls-11,.cls-28{fill:#020202;}.cls-15{clip-path:url(#clip-path-2);}.cls-16,.cls-27{stroke:#000;}.cls-17{stroke:#050606;}.cls-19{stroke:#fff;}.cls-21{clip-path:url(#clip-path-3);}.cls-23{stroke:#363957;}.cls-24{fill:#a15e49;}.cls-25{clip-path:url(#clip-path-4);}.cls-26{clip-path:url(#clip-path-5);}.cls-29{fill:#49495b;}.cls-30{clip-path:url(#clip-path-6);}.cls-31{clip-path:url(#clip-path-7);}.cls-32{clip-path:url(#clip-path-8);}.cls-33{clip-path:url(#clip-path-9);}.cls-34{clip-path:url(#clip-path-10);}.cls-35{clip-path:url(#clip-path-11);}</style><clipPath id="clip-path"><rect class="cls-1" x="82.86" y="17.22" width="153.61" height="108.63" rx="5.95"/></clipPath><clipPath id="clip-path-2"><path class="cls-2" d="M165.38,72.24s-30.15,30.45-32.75,32-19.17.76-19.17.76-2.71-.27-6.77-.46a111.83,111.83,0,0,0-14.8,0c-6.1.6-10.29,1-14.38,4a20.44,20.44,0,0,0-4.92,5.34c-5.24,7.68-8.11,15.87-10.64,24.85-5.38,19-3.78,22.36-2.33,24.24a11.52,11.52,0,0,0,5.87,3.84,39,39,0,0,0,10.7,1.59A161.08,161.08,0,0,0,80.34,189s51.93-16.31,54.18-22.27c1.5-.13-8.39-36.14-8.39-36.14s10-.48,14.64-3.1,37.54-39.31,37.54-39.31Zm-40.29,68.64s-.53,10.28-.21,16.43c-6.54-4.38-15.4-9.48-23.46-13.91C113.34,142.33,125.09,140.88,125.09,140.88Z"/></clipPath><clipPath id="clip-path-3"><rect class="cls-3" x="121.91" y="6.37" width="28.14" height="17.3" transform="translate(11.66 -42.09) rotate(18.37)"/></clipPath><clipPath id="clip-path-4"><path class="cls-4" d="M849.75,209.23c-.08,0-.19.06-.33.22l-15.76-3.78s-39.24,6.34-41.26,7.15,22.65,47.32,22.65,47.32l17.8-13.75L819.1,220.5l21.17,10.25c-9.31,24.27-22,60.39-22,60.39L839,297.67l40.65-89.5S852.23,209.85,849.75,209.23Z"/></clipPath><clipPath id="clip-path-5"><path class="cls-2" d="M864.4,150.93a66.75,66.75,0,0,1,15.51,4.58,26.17,26.17,0,0,1,4.18,2s5.07,3.53,8.89,24h0l-16,4.85s-3.24-8.5-2.7-9.3S879,205.67,879,205.67h-45.3l1.21-28.58c-.1.59-.83,4.59-3.77,5.93-3.41,1.55-9-.83-11.55-6.81,4.88-8.3,8.41-14.34,9.41-16.18a10.67,10.67,0,0,1,1.51-2.17,11.2,11.2,0,0,1,2.28-1.93c4.24-2.77,10.21-3.9,13.18-4.33h0Z"/></clipPath><clipPath id="clip-path-6"><rect class="cls-3" x="761.75" y="103.85" width="28.14" height="17.3" transform="translate(-7.08 152.79) rotate(-11.2)"/></clipPath><clipPath id="clip-path-7"><rect class="cls-3" x="878.24" y="88.08" width="28.14" height="17.3" transform="translate(-5.11 81.94) rotate(-5.24)"/></clipPath><clipPath id="clip-path-8"><rect class="cls-1" x="832.1" y="34.64" width="63.03" height="37.38" rx="5.25"/></clipPath><clipPath id="clip-path-9"><polygon class="cls-2" points="698.49 175.33 698.49 216.85 698.49 258.38 698.49 299.91 758.89 299.91 758.89 258.38 758.89 216.85 758.89 175.33 698.49 175.33"/></clipPath><clipPath id="clip-path-10"><rect class="cls-2" x="779.41" y="175.66" width="14.79" height="26.7"/></clipPath><clipPath id="clip-path-11"><rect class="cls-2" x="161.39" y="196.83" width="60.67" height="103.08"/></clipPath></defs><g id="Layer_2" data-name="Layer 2"><g id="Layer_1-2" data-name="Layer 1"><rect class="cls-5" x="708.2" y="201.42" width="65.53" height="98.49"/><rect class="cls-5" x="49.79" y="171.28" width="77.66" height="128.63"/><line class="cls-6" x1="950.36" y1="299.91" x2="0.4" y2="299.91"/><rect class="cls-7" x="82.86" y="17.22" width="153.61" height="108.63" rx="5.95"/><g class="cls-8"><rect class="cls-9" x="80.6" y="12.73" width="165.66" height="25.14"/></g><rect class="cls-6" x="82.86" y="17.22" width="153.61" height="108.63" rx="5.95"/><rect class="cls-9" x="165.65" y="93.34" width="9.31" height="23.17"/><rect class="cls-9" x="178.94" y="83.64" width="9.31" height="32.87"/><rect class="cls-9" x="192.23" y="69.52" width="9.31" height="46.99"/><rect class="cls-9" x="205.51" y="57.36" width="9.31" height="59.15"/><rect class="cls-9" x="218.8" y="44.03" width="9.31" height="72.48"/><line class="cls-10" x1="147.5" y1="44.45" x2="147.5" y2="117.47"/><rect class="cls-9" x="91.24" y="48.64" width="46.69" height="12.37"/><rect class="cls-9" x="91.24" y="66.69" width="46.69" height="12.37"/><rect class="cls-9" x="91.24" y="84.75" width="46.69" height="12.37"/><rect class="cls-9" x="90.47" y="102.81" width="46.69" height="12.37"/><path class="cls-4" d="M82.56,183.78l-11,123.29s76.09,4.87,84.67-3.41c0,0-15.82-129.82-21.72-137S82.56,183.78,82.56,183.78Z"/><path class="cls-11" d="M105.14,61.39s-.21-9.32-10-11-16,7.71-12.77,16S105.14,61.39,105.14,61.39Z"/><circle class="cls-11" cx="80.4" cy="57.53" r="3.99"/><circle class="cls-11" cx="77.43" cy="61.63" r="2.18"/><circle class="cls-11" cx="76.11" cy="65.6" r="2.02"/><circle class="cls-11" cx="75.53" cy="69.63" r="2.18"/><circle class="cls-11" cx="75.02" cy="73.75" r="2.18"/><path class="cls-12" d="M165.71,77.08s14.64-17.89,17.43-17.83-6.09,9.8-6.09,9.8,5.38-6,7-5.9-3.08,6.25-4.29,7.35,5.8-5.54,6.53-5.29-4.71,8.9-5.48,9.2,7.18-7.37,8-7-4.49,7.61-5.28,8.1c0,0-4.49,7.52-9.05,10.57S165.71,77.08,165.71,77.08Z"/><path class="cls-12" d="M181,77.74s.68-7.09-1.2-6.86-1.22,6-1.22,6-2.73-.07-3.06,1.58a3.9,3.9,0,0,0,.1,2.47"/><path class="cls-13" d="M80.48,135.58c-.51.69-3.42,4.68-3.78,7.84-.06.55,1.11.87,3.12,1C79.86,139.73,80.07,136.33,80.48,135.58Z"/><path class="cls-14" d="M80.48,135.58l.09-.11A.35.35,0,0,0,80.48,135.58Z"/><path class="cls-2" d="M165.38,72.24s-30.15,30.45-32.75,32-19.17.76-19.17.76-2.71-.27-6.77-.46a111.83,111.83,0,0,0-14.8,0c-6.1.6-10.29,1-14.38,4a20.44,20.44,0,0,0-4.92,5.34c-5.24,7.68-8.11,15.87-10.64,24.85-5.38,19-3.78,22.36-2.33,24.24a11.52,11.52,0,0,0,5.87,3.84,39,39,0,0,0,10.7,1.59A161.08,161.08,0,0,0,80.34,189s51.93-16.31,54.18-22.27c1.5-.13-8.39-36.14-8.39-36.14s10-.48,14.64-3.1,37.54-39.31,37.54-39.31Zm-40.29,68.64s-.53,10.28-.21,16.43c-6.54-4.38-15.4-9.48-23.46-13.91C113.34,142.33,125.09,140.88,125.09,140.88Z"/><g class="cls-15"><path d="M76.72,144.11c1-11.89,1.72-15.7,2.23-15.68s1,3.89,1.36,15.93a14.83,14.83,0,0,1-1.88,0A14.68,14.68,0,0,1,76.72,144.11Z"/><path class="cls-16" d="M132.14,103.67S136,107,136,108.9"/><path class="cls-16" d="M58.19,163.33s-1.12-11.39,3.59-12.13"/></g><ellipse class="cls-11" cx="125.34" cy="151.38" rx="2.14" ry="10.39" transform="translate(-7.71 6.73) rotate(-2.98)"/><path class="cls-17" d="M122.54,142.86s9.23-6,11.09-4.6-3.52,4.65-3.52,4.65a57.94,57.94,0,0,0,6.75-.39c1.64-.35,6.79-3.75,6.87-1.88s-5.13,4.64-7.12,4.59c0,0,6.88-1.25,7.4-1.6s2.8-.29,1.2,1.15-8.07,3-9,2.6c0,0,7.21-.19,8.33-.7s2.38,1,1.39,1.71-6.28,2-8.21,1.69c0,0,5.69.46,6.52,0a1.2,1.2,0,0,1,1.63.87,1.46,1.46,0,0,1-.89,1.09c-.32.05-5.82.59-7,.49A113.1,113.1,0,0,1,121,150.79C113.18,149.21,122.54,142.86,122.54,142.86Z"/><path class="cls-14" d="M125.09,140.88s-34.58,4.27-45.27,3.54c-.07,6.73.19,16.1.64,24,17.67-.32,40.53-5.56,45.25-6.66C124.06,160.67,125.09,140.88,125.09,140.88Z"/><path class="cls-2" d="M78.06,144.86c.49,0,1,0,1.51,0l1.62,0q.7,11.53,1.42,23.06l-2.38.05-1.87,0Z"/><path class="cls-12" d="M90.36,89s-.52,14.79,1.77,16.46,4.16,2.43,4.81,2,3.55-1.78,3.69-2.76,1.59-11,.67-14.41Z"/><path class="cls-12" d="M98.21,93.35a9.66,9.66,0,0,0,3.83-3,8.79,8.79,0,0,0,1.24-2.3c1-2.72,3.37-24.5,1.86-26.67s-10-7.66-16.5-3.32-6.22,8.27-6.22,8.27a48.15,48.15,0,0,0,.82,7.19,35.67,35.67,0,0,0,5.19,14C91,91.33,93,92.3,93.8,92.64A10,10,0,0,0,98.21,93.35Z"/><path class="cls-18" d="M96.36,70.65s6.31.36,7.7,1.58S99.68,76,97.48,75.45"/><path class="cls-16" d="M79.82,144.42s-3.63,0-3.8-.58"/><path class="cls-16" d="M80.46,168.45a56.3,56.3,0,0,1-7.87-.29"/><path class="cls-16" d="M123.41,121.19s.32,6.11,2.23,8.23"/><path class="cls-19" d="M123.66,180.78s17.33,102,13.86,113.86"/><rect class="cls-3" x="158.5" y="119.67" width="24.62" height="32.36" transform="translate(23.38 -25.07) rotate(9.01)"/><line class="cls-6" x1="162.4" y1="124.28" x2="180.39" y2="127.13"/><line class="cls-6" x1="161.7" y1="128.69" x2="179.69" y2="131.54"/><line class="cls-6" x1="161" y1="133.1" x2="178.99" y2="135.95"/><line class="cls-6" x1="160.3" y1="137.51" x2="178.29" y2="140.36"/><line class="cls-6" x1="167.55" y1="147.62" x2="173.03" y2="148.49"/><line class="cls-6" x1="159.93" y1="146.36" x2="165.41" y2="147.23"/><rect class="cls-20" x="121.91" y="6.37" width="28.14" height="17.3" transform="translate(11.66 -42.09) rotate(18.37)"/><g class="cls-21"><polygon class="cls-3" points="134.94 18.18 152.19 11.19 125.29 2.26 134.94 18.18"/></g><rect class="cls-6" x="121.91" y="6.37" width="28.14" height="17.3" transform="translate(11.66 -42.09) rotate(18.37)"/><path class="cls-22" d="M59.4,47.73c7.4-2.42,15.06-4.92,21.2-9.88,5.31-4.29,9.34-10.53,9.45-17.5a.42.42,0,0,0-.3-.39,8.9,8.9,0,0,0-10,4,8.71,8.71,0,0,0,2.13,10.67,9.74,9.74,0,0,0,6.16,2,46.51,46.51,0,0,0,7.82-.44c4.74-.66,9-2.57,11.65-6.75,2.49-4,3.25-8.73,4.84-13.08A10.18,10.18,0,0,1,114,13c1.29-1.41,3.3-.76,4.8-.07a12.55,12.55,0,0,1,5.12,4.49c2.38,3.59,3.42,9.12.85,12.91-.81,1.21-2.3,2.31-3.74,1.37-1.2-.79-1.67-2.42-2-3.75a15.1,15.1,0,0,1,.32-7.55C123.07,7.67,136.88,3.68,148.27.79c.5-.13.28-.9-.22-.78-10.27,2.62-21.83,5.78-27.49,15.63-2.38,4.15-3.5,9.32-1.87,14,.59,1.67,1.81,3.45,3.8,3.26s3.39-2.44,4-4.24a13.8,13.8,0,0,0-2.11-12,13.52,13.52,0,0,0-4.56-4.08c-1.74-.93-4.24-1.89-6-.46s-2.34,4.19-3,6.19c-.76,2.41-1.39,4.86-2.3,7.21A16.36,16.36,0,0,1,104.39,32a15.35,15.35,0,0,1-7.73,3.32,36.85,36.85,0,0,1-9.72.52,7.94,7.94,0,0,1-7-5.3c-2.08-5.88,3.66-11.52,9.55-9.77l-.29-.38c-.11,6.9-4.22,13-9.52,17.17-6,4.7-13.4,7.1-20.54,9.44-.49.16-.28.93.21.77Z"/><path class="cls-22" d="M222,110.13a146.4,146.4,0,0,0-1.45,18.47c0,.37.58.58.75.2a6.23,6.23,0,0,0-.81-6.11,10.71,10.71,0,0,0-5.76-3.78,32.75,32.75,0,0,0-4-1,5,5,0,0,0-3,.08c-2.18,1-2.06,3.89-2.18,5.88-.19,3.21-.3,6.44-.59,9.65-.38,4.24-4.45,3.39-7.44,2.69-5.25-1.23-9.49,1.56-13,5.21-4.07,4.21-8.06,10.5-14.66,10.31a.4.4,0,0,0,0,.8c10.54.3,13.54-13.41,22.95-15.66,2.84-.68,5.28.67,8.06.82,1.8.1,3.81-.57,4.55-2.34a10.28,10.28,0,0,0,.45-3.22l.3-4.86c.08-1.46.17-2.92.26-4.37.08-1.29.08-3,1.17-3.87,1.3-1.07,3.47-.26,4.94.09a19.51,19.51,0,0,1,4.39,1.52c2.7,1.43,5.07,4.6,3.7,7.75l.75.2a142.93,142.93,0,0,1,1.43-18.25c.07-.51-.7-.72-.78-.22Z"/><circle class="cls-6" cx="164.3" cy="170.34" r="5.66"/><circle class="cls-6" cx="172.19" cy="9.76" r="3.44"/><circle class="cls-6" cx="80.57" cy="8.75" r="3.44"/><polyline class="cls-6" points="886.65 264.63 841.07 264.63 812.76 257.62"/><path class="cls-23" d="M863.73,157.44h17.52s13-.27,8.9,28.31S882.6,230,882.6,230H822.74l9.17-62.83s-1.89-10.52,14.83-9.71S863.73,157.44,863.73,157.44Z"/><path class="cls-6" d="M882.87,235.64l8.36,63.91a7,7,0,0,1-4.31,0c-1.89-.81-12.68-66.34-12.68-66.34Z"/><path class="cls-6" d="M815.59,235.49l-8.36,63.91a7,7,0,0,0,4.32,0c1.88-.81,12.67-66.34,12.67-66.34Z"/><path class="cls-6" d="M850.68,235.34,859,299.25a7,7,0,0,1-4.31,0c-1.89-.81-12.68-66.34-12.68-66.34Z"/><polygon class="cls-24" points="883.44 229.27 883.72 235.64 815.46 235.64 815.46 228.36 883.44 229.27"/><polygon class="cls-1" points="816.37 254.68 820.72 260.95 834.47 255.09 828.7 243.46 816.37 254.68"/><path class="cls-24" d="M819.52,258.93s-8.18,9.65-7.48,11.7,3.7,8.85,13.65-2.54l9.94-11.39-2.22-4.21S820.93,259.39,819.52,258.93Z"/><polygon class="cls-1" points="815.21 299.08 819.87 288.38 832.8 292.97 830.34 299.35 815.21 299.08"/><path class="cls-4" d="M849.75,209.23c-.08,0-.19.06-.33.22l-15.76-3.78s-39.24,6.34-41.26,7.15,22.65,47.32,22.65,47.32l17.8-13.75L819.1,220.5l21.17,10.25c-9.31,24.27-22,60.39-22,60.39L839,297.67l40.65-89.5S852.23,209.85,849.75,209.23Z"/><g class="cls-25"><line class="cls-19" x1="839.86" y1="230.92" x2="847.15" y2="215.56"/><line class="cls-19" x1="814.34" y1="217.94" x2="819.47" y2="220.87"/></g><path class="cls-24" d="M816,296.83s-11.6,5-11.88,7.19-.59,9.58,13.37,3.75L831.43,302l-.14-4.76S817.05,297.87,816,296.83Z"/><path d="M880.43,185.72a.71.71,0,0,0,.18-.6l11.32-3.3c2.48,4.45,3.56,7.76,2.9,8.86C894,192,885.71,195.89,878,199l0,.27c7.76-3.11,16.15-7,17-8.43,1-1.7-1.59-6.8-3-9.29l-11.71,3.42a.73.73,0,0,1-.08.6c-.14.14-1.69,1-3.92,2.31l0,.26C878.68,186.8,880.28,185.87,880.43,185.72Z"/><path class="cls-7" d="M894.83,190.68c.66-1.1-.42-4.41-2.9-8.86l-11.32,3.3a.71.71,0,0,1-.18.6c-.15.15-1.75,1.08-4,2.39L878,199C885.71,195.89,894,192,894.83,190.68Z"/><path d="M892.27,181.4l-.1-.17-12.12,3.53,0,.22c0,.31,0,.38,0,.38-.16.14-1.61,1-3.79,2.22l0,.27c2.23-1.27,3.78-2.17,3.92-2.31a.73.73,0,0,0,.08-.6l11.71-3.42c1.4,2.49,4,7.59,3,9.29-.84,1.39-9.23,5.32-17,8.43l0,.25c7.83-3.14,16.31-7.12,17.17-8.55C896.27,189.26,894.19,184.82,892.27,181.4Z"/><path class="cls-2" d="M864.4,150.93a66.75,66.75,0,0,1,15.51,4.58,26.17,26.17,0,0,1,4.18,2s5.07,3.53,8.89,24h0l-16,4.85s-3.24-8.5-2.7-9.3S879,205.67,879,205.67h-45.3l1.21-28.58c-.1.59-.83,4.59-3.77,5.93-3.41,1.55-9-.83-11.55-6.81,4.88-8.3,8.41-14.34,9.41-16.18a10.67,10.67,0,0,1,1.51-2.17,11.2,11.2,0,0,1,2.28-1.93c4.24-2.77,10.21-3.9,13.18-4.33h0Z"/><g class="cls-26"><path class="cls-27" d="M874.24,176.92a3.77,3.77,0,0,0-1,2.51c0,1.44,2.61,23.43,2.61,23.43l2.74-.13Z"/><path class="cls-18" d="M873.16,166.43s0,5.67.68,6.34"/><path class="cls-18" d="M829.88,156.59s6.34,10.79,6.34,14.56"/><path class="cls-18" d="M875.05,161.72s8.09-6.61,10.38-5.67"/></g><path class="cls-1" d="M863.51,151.16l.39-11.72s-18.29-.55-18.12,0,0,12.91,0,13a13.91,13.91,0,0,0,2.45,3.59c1,1,2.33,2.45,4.3,2.63a4.68,4.68,0,0,0,1.1,0h0l.73-.06h0c.35,0,.7-.09,1.05-.16h.08l.17,0a9.07,9.07,0,0,0,2.64-1c1-.54,2.09-1.87,4.28-4.55a5,5,0,0,0,.61-.94A4.8,4.8,0,0,0,863.51,151.16Z"/><path class="cls-1" d="M840.87,115.5s1.62,24.47,4.86,26.29,2.63,9.31,19.61-1.82c0,0,8.9-17,4.45-25.68S840.87,115.5,840.87,115.5Z"/><path class="cls-28" d="M834.8,117.93s.41-3.84,2-3.44c0,0,.1-6.17,1.72-5.11s2.83-.7,3.74.41,5.41,3.23,6.92,2.58,11.68-1.57,13.86-3.59,7.48,2.17,7.48,2.17,5.31,6.32,3.69,11.53-.45,7.13-3.54,9.81-1.67-7-1.67-7,.76-8-1.66-7.84-12.34,3.44-13,2.33,2.78-2.63,2.78-2.63-12.08,3.54-13.7,2.58C843.45,119.7,834.45,121.67,834.8,117.93Z"/><path d="M866.06,203.34c-5.94,1.15-8.85-4.81-8.85-4.81s12.55-6.94,19.13-10.68l0-.27c-4.76,2.71-13.06,7.33-19.21,10.73l-.21.12.11.21c0,.06,2.55,5.1,7.58,5.1a7.68,7.68,0,0,0,1.54-.16,85.68,85.68,0,0,0,12-4.09l0-.25A86.1,86.1,0,0,1,866.06,203.34Z"/><path class="cls-7" d="M857.55,198.63c.58,1,3.42,5.44,8.47,4.46A86.3,86.3,0,0,0,878,199l-1.63-10.86C870.43,191.49,859.81,197.38,857.55,198.63Z"/><path d="M866.06,203.34a86.1,86.1,0,0,0,12-4.1l0-.27a86.3,86.3,0,0,1-12,4.12c-5,1-7.89-3.43-8.47-4.46,2.26-1.25,12.88-7.14,18.83-10.52l0-.26c-6.58,3.74-19.13,10.68-19.13,10.68S860.12,204.49,866.06,203.34Z"/><polygon class="cls-29" points="857.76 199.87 871.31 199.74 871.92 202.7 857.29 202.7 857.76 199.87"/><polygon class="cls-29" points="802.88 173.72 814.07 202.43 860.32 202.7 850.48 172.5 802.44 172.5 802.88 173.72"/><path class="cls-6" d="M906.61,212l-3.48,86.13a2.63,2.63,0,0,1-1.84,1.72c-1.52.43-3.11-1.9-3.11-1.9l-6.6-87Z"/><path class="cls-6" d="M778.1,211.76l3.48,86.13a2.6,2.6,0,0,0,1.84,1.72c1.52.43,3.11-1.9,3.11-1.9l6.6-87Z"/><polygon class="cls-2" points="775.29 202.3 913.09 202.3 908.23 214.43 776.64 214.43 775.29 202.3"/><line class="cls-6" x1="775.56" y1="206.34" x2="911.04" y2="206.34"/><path class="cls-1" d="M859.08,136.15s-9.1,4.49-10.82,2.32"/><rect class="cls-20" x="761.75" y="103.85" width="28.14" height="17.3" transform="translate(-7.08 152.79) rotate(-11.2)"/><g class="cls-30"><polygon class="cls-3" points="776.46 115.77 788.02 101.18 760.22 106.68 776.46 115.77"/></g><rect class="cls-6" x="761.75" y="103.85" width="28.14" height="17.3" transform="translate(-7.08 152.79) rotate(-11.2)"/><path d="M854.19,131.92s12-.51,14.46,1.51,7.48,0,7.48,0-2.22,2-3.94,2.23-4.76.3-5.67-.81S861.47,133,854.19,131.92Z"/><path d="M852.32,131.92s-12-.51-14.46,1.51-7.49,0-7.49,0,2.23,2,4,2.23,4.75.3,5.66-.81S845,133,852.32,131.92Z"/><rect class="cls-20" x="878.24" y="88.08" width="28.14" height="17.3" transform="translate(-5.11 81.94) rotate(-5.24)"/><g class="cls-31"><polygon class="cls-3" points="892.61 100.04 905.62 86.73 877.4 89.32 892.61 100.04"/></g><rect class="cls-6" x="878.24" y="88.08" width="28.14" height="17.3" transform="translate(-5.11 81.94) rotate(-5.24)"/><rect class="cls-3" x="735" y="62.69" width="24.62" height="32.36" transform="translate(21.57 -116.05) rotate(9.01)"/><line class="cls-6" x1="738.9" y1="67.29" x2="756.88" y2="70.14"/><line class="cls-6" x1="738.2" y1="71.7" x2="756.18" y2="74.56"/><line class="cls-6" x1="737.5" y1="76.12" x2="755.48" y2="78.97"/><line class="cls-6" x1="736.8" y1="80.53" x2="754.78" y2="83.38"/><line class="cls-6" x1="744.04" y1="90.63" x2="749.52" y2="91.5"/><line class="cls-6" x1="736.43" y1="89.38" x2="741.91" y2="90.24"/><rect class="cls-3" x="770.09" y="34.16" width="24.62" height="32.36"/><line class="cls-6" x1="772.27" y1="40.23" x2="790.48" y2="40.23"/><line class="cls-6" x1="772.27" y1="44.7" x2="790.48" y2="44.7"/><line class="cls-6" x1="772.27" y1="53.63" x2="790.48" y2="53.63"/><line class="cls-6" x1="773.29" y1="62.43" x2="778.84" y2="62.43"/><polygon class="cls-7" points="877.76 199.05 878.3 198.86 877 187.77 875.59 188.56 877.76 199.05"/><path class="cls-22" d="M723.62,114.68c3.91.26,7.46,2,11.13,3.18a29.35,29.35,0,0,0,9.14,1.57c5.85,0,11.75-1.85,15.83-6.18a.4.4,0,0,0-.28-.68c-5-.32-10.65-.64-14.86,2.54-3.24,2.45-5.27,6.83-3.21,10.68,1.76,3.29,5.73,4.68,9.22,5.07,4.91.57,10.18-.64,14.72-2.47,1.11-.46,2.21-1,3.28-1.52,1.55-.81,3.43-2.48,5-.86,1.89,1.94,2.57,5.22,2.43,7.83a11.82,11.82,0,0,1-9.45,10.83,5.32,5.32,0,0,1-3.69-.27c-2-1.19-.42-3.49.78-4.56a15.58,15.58,0,0,1,5.86-3.08,19.57,19.57,0,0,1,12.42.57,17.64,17.64,0,0,1,6.17,4,30.38,30.38,0,0,1,4.1,5.82c2.13,3.49,4.62,7.48,9.11,7.83.51,0,.51-.76,0-.8-4.78-.38-7.16-5.42-9.38-9a19.68,19.68,0,0,0-9.24-8.38,20.43,20.43,0,0,0-12.14-1.11,17.77,17.77,0,0,0-5.76,2.35c-1.62,1-3.7,2.66-3.67,4.79s2.17,2.9,4,2.84a12,12,0,0,0,6.25-2.15,12.53,12.53,0,0,0,5.36-12.15c-.31-2.13-1.17-4.82-2.91-6.23-2.09-1.7-4.49.51-6.41,1.46-4.95,2.44-10.93,4.07-16.49,3.52a13,13,0,0,1-7.27-2.75,6.59,6.59,0,0,1-1.8-7.51c2.78-7,11.33-6.87,17.6-6.47l-.29-.69c-4.2,4.47-10.36,6.2-16.37,5.92a30.92,30.92,0,0,1-9.1-2c-3.29-1.18-6.53-2.53-10.06-2.76-.52,0-.51.77,0,.8Z"/><path class="cls-22" d="M785.88,44.43A144.47,144.47,0,0,0,803,37.34a.4.4,0,0,0-.21-.74,6.16,6.16,0,0,0-4.94,3.28c-1.33,2.31-1.25,5-.78,7.58.38,2,.74,5.59,2.95,6.55s5.35-1,7.36-1.93l4.69-2c1.55-.67,3.62-2,5.32-1.15,2.8,1.47,2.45,5.5,3.66,8,2.07,4.25,7,6.07,11.26,7.22,5.22,1.4,11.74,2.52,14.3,8,.22.47.91.06.69-.4-4.11-8.75-16.26-6.6-22.94-12-2.17-1.74-3-3.94-3.62-6.57-.46-2-1.26-4.31-3.36-5.12a4,4,0,0,0-2.84.1c-1.43.53-2.82,1.21-4.22,1.82l-4.24,1.84c-1.45.63-3.11,1.65-4.74,1.67-2.14,0-2.56-2.3-3-3.94a20.62,20.62,0,0,1-.81-5.34c.06-3.06,1.83-6.57,5.24-6.77l-.2-.75a141.07,141.07,0,0,1-16.92,7c-.48.17-.27.94.21.78Z"/><circle class="cls-6" cx="756" cy="155.98" r="4.45"/><circle class="cls-6" cx="811.41" cy="83.18" r="3.44"/><circle class="cls-6" cx="844.58" cy="26.55" r="3.44"/><circle class="cls-6" cx="897.57" cy="122.41" r="3.44"/><rect class="cls-7" x="832.1" y="34.64" width="63.03" height="37.38" rx="5.25"/><g class="cls-32"><rect class="cls-9" x="831.17" y="33.1" width="67.97" height="8.65"/></g><rect class="cls-6" x="832.1" y="34.64" width="63.03" height="37.38" rx="5.25"/><rect class="cls-9" x="860.59" y="60.84" width="4.29" height="7.97"/><rect class="cls-9" x="866.71" y="57.5" width="4.29" height="11.31"/><rect class="cls-9" x="872.82" y="52.64" width="4.29" height="16.17"/><rect class="cls-9" x="878.94" y="48.45" width="4.29" height="20.36"/><rect class="cls-9" x="885.06" y="43.87" width="4.29" height="24.94"/><line class="cls-10" x1="854.34" y1="44.01" x2="854.34" y2="69.14"/><rect class="cls-9" x="834.98" y="45.45" width="16.07" height="5.77"/><rect class="cls-9" x="834.98" y="54.03" width="16.07" height="5.77"/><rect class="cls-9" x="834.98" y="62.6" width="16.07" height="5.77"/><path class="cls-16" d="M93.82,81.09s4.85,2.15,7.28.8"/><polygon class="cls-2" points="698.49 175.33 698.49 216.85 698.49 258.38 698.49 299.91 758.89 299.91 758.89 258.38 758.89 216.85 758.89 175.33 698.49 175.33"/><g class="cls-33"><rect class="cls-14" x="735.38" y="261.25" width="20.22" height="3.24" rx="0.96"/><rect class="cls-14" x="735.38" y="178.19" width="20.22" height="3.24" rx="0.96"/><rect class="cls-14" x="735.38" y="219.72" width="20.22" height="3.24" rx="0.96"/><line class="cls-16" x1="698.49" y1="258.38" x2="760.04" y2="258.38"/><line class="cls-16" x1="697.61" y1="216.99" x2="759.16" y2="216.99"/></g><path class="cls-1" d="M709.74,151.27s1.31-16,5.92-17c0,0,5.1,3.46-3.29,17.12Z"/><path class="cls-1" d="M705.79,149.46s-6.59-11.68-4.28-16.62c0,0,6.25,1,7.73,16C709.24,148.8,708.58,153.74,705.79,149.46Z"/><path class="cls-1" d="M708.25,152.26s-3.62-18.93,3.79-26c0,0,4.61,5.59-1.15,27.81Z"/><path class="cls-1" d="M714.18,152.75s3-8.88,5.92-9.54,3.95,3.62,3.95,3.62,1-7.41-5.43-5.6-5.43,6.09-7.24,10.53S714.18,152.75,714.18,152.75Z"/><path class="cls-1" d="M705.62,153.41s-2-8.72-4.28-9.38a5.15,5.15,0,0,0-5.43,2.3c-.66,1.32,3.46-8.39,7.41-5.26,0,0,4.77,1.15,5.26,12.18A2.55,2.55,0,0,1,705.62,153.41Z"/><path class="cls-1" d="M703,151.76s-3.13-4.77-6.26-2.3c0,0,1.32-3.46,4.61-2.14s4.12,3,3.95,5.27S703,151.76,703,151.76Z"/><polygon class="cls-29" points="715.78 175.46 702.54 175.46 700.03 151.98 718.29 151.98 715.78 175.46"/><rect class="cls-2" x="779.41" y="175.66" width="14.79" height="26.7"/><g class="cls-34"><circle class="cls-14" cx="790.49" cy="179.38" r="1.97"/><circle class="cls-14" cx="782.94" cy="179.38" r="1.97"/><line class="cls-16" x1="786.8" y1="173.95" x2="786.8" y2="202.35"/></g><rect class="cls-2" x="161.39" y="196.83" width="60.67" height="103.08"/><g class="cls-35"><rect class="cls-14" x="159.88" y="196" width="64.18" height="42.34"/><rect class="cls-14" x="159.34" y="238.2" width="67.82" height="41.53"/><rect class="cls-14" x="198.41" y="199.68" width="20.22" height="3.24" rx="0.96"/><rect class="cls-14" x="199.12" y="242.11" width="20.22" height="3.24" rx="0.96"/></g><path class="cls-1" d="M216.81,185.51S230,159.09,230.29,155s-10.25,3-16.18,30.2Z"/><path class="cls-1" d="M209.79,186.59s-.8-31,3.51-34.25c0,0,.81-3.5,6.47-3.77s-6.2,38.29-6.2,38.29Z"/><path class="cls-1" d="M200.09,185s-.18-.35-.48-1c-2.55-5.27-14.31-29.93-11.66-31.38,3-1.61,13.21,26.7,14.56,31.28S200.09,185,200.09,185Z"/><path class="cls-1" d="M202.37,186.3s-8.47-29.44-4.61-36.11,10.54,38.16,7.14,36.91S202.37,186.3,202.37,186.3Z"/><path class="cls-1" d="M205.21,185.24s-4.58-36.4,1.35-39.37,4.58,38.56,2.69,39.91S205.21,185.24,205.21,185.24Z"/><polygon class="cls-29" points="220.93 196.83 195.58 196.83 192.88 174.99 223.63 174.99 220.93 196.83"/><circle class="cls-6" cx="225.95" cy="137.98" r="3.44"/></g></g></svg>