<svg xmlns="http://www.w3.org/2000/svg" viewBox="0 0 542.26 130.08"><defs><style>.cls-1,.cls-2{fill:none;stroke:#fff;stroke-miterlimit:10;isolation:isolate;opacity:0.04;}.cls-1{stroke-width:1.07px;}.cls-2{stroke-width:0.85px;}</style></defs><g id="Layer_2" data-name="Layer 2"><g id="Layer_1-2" data-name="Layer 1"><path class="cls-1" d="M.39,57.07S42.24,13.16,53.6,22.46,5,104.61,1.42,100.47s25.84-65.61,37.2-65.61-15,31-18.6,33.58"/><path class="cls-1" d="M22.78,106.68S71.86,41.54,75.47,30.21,77-3.89,87.35,1.29s-30.48,93-42.88,102.28,10.86,27.9,23.25,8.27S90.45,12.65,112.66,14.2s27.91,82.65-1,76.46-15.51-79-5.17-59.41S107,70,107,70"/><path class="cls-1" d="M87.35,79.29S111.61,116,130.77,99.43s4.14-64.57,11.88-68.18,30-39.78,43.42-17.56S162.32,110.75,153,100s-9.35-47.06,2-58.38,18.6,1.55,12.93,17.56"/><path class="cls-1" d="M206.68,5.41s.53,84.22-25.82,99.2,19.16,10.33,23.24-1.56,2.56-81.1,12.92-78-11.37,82.14-.52,78.52,11.37-105.9,33.58-85.76,0,77-8.26,77.5,4.65-83.69,7.75-62.52"/><path class="cls-1" d="M267.13,19.37s-1.56,83.17-15,87.31-7.24,23.24-7.24,23.24"/><path class="cls-1" d="M268.16,104.61s12.39-57.35,11.37-62.52,4.13-30.47,13.42-15-25.82,70.24-8.26,63.55,60.45-38.24,55.8-52.18S306.39,24,304.84,30.21s-20.15,43.43-8.78,39.26,27.38-25.31,27.38-25.31"/><path class="cls-1" d="M332.74,16.78s26.34,12.92,19.63,26.35-37.22,51.15-47.53,53.19-2.06,28.93,15,17.56S317.71,100,317.71,100s54.24-50.63,47-62.52,7.79-27.89,18.12-12.91,4.66,62.52-20.65,63S371,53.46,371,53.46"/><path class="cls-1" d="M391.12,15.23s12.38,50.63-3.62,68.71-19.64,31.54-28.42,19.11-9.29-27.37-17.05-16-10.28,19.63-6.19,20.65"/><path class="cls-1" d="M379.75,105.64c5.68-6.21,36.15-42.88,25.31-73.36s25.83-17,27.38,4.65-1.55,57.35,10.85,55.28,30.48-58.89,19.63-64.58-32.55,37.19-22.74,46.49,15-30,15-30"/><path class="cls-1" d="M395.24,109.26s21.19-34.1,21.19-55.8,8.77-7.74,8.26,18.08,3.62,39.78,11.88,37.72"/><path class="cls-1" d="M468.09,17.81s14.46,56.84-6.72,73.89-20.15,25.31.51,19.62,23.77-59.93,20.67-68.19S495-5.41,508.38,27.63s-7.75,90.92-13.94,72.8-3.63-69.73,0-65.61,9.29,12.41,5.1,32S498,85.45,498,85.45"/><path class="cls-2" d="M508.73,16.78s12.91,52.69,3.61,72.8S517,117,525.25,104s26.82-59.92,9.3-71.29-5.11,35.65-10.33,44.43S523.71,88,523.71,88"/></g></g></svg>