<svg xmlns="http://www.w3.org/2000/svg" xmlns:xlink="http://www.w3.org/1999/xlink" viewBox="0 0 479.16 99.98"><defs><style>.cls-1,.cls-3,.cls-4{fill:#353433;stroke:#353433;}.cls-1,.cls-3{stroke-miterlimit:10;}.cls-1{stroke-width:2px;}.cls-2{fill:none;}.cls-3,.cls-4{stroke-width:5px;}.cls-4{stroke-linecap:round;stroke-linejoin:round;}.cls-5{fill:url(#linear-gradient);}</style><linearGradient id="linear-gradient" x1="16.46" y1="49.99" x2="83.52" y2="49.99" gradientUnits="userSpaceOnUse"><stop offset="0" stop-color="#e9b991"/><stop offset="0.62" stop-color="#e2a975"/><stop offset="1" stop-color="#dfa36a"/></linearGradient></defs><g id="Layer_2" data-name="Layer 2"><g id="Layer_1-2" data-name="Layer 1"><path class="cls-1" d="M122.63,87.91h-3.26c-1.15,0-1.72-.63-1.72-1.9V25.39c0-1.26.6-1.9,1.81-1.9h3.35c1.09,0,1.64.64,1.64,1.9V51.31h32.07V25.39a1.68,1.68,0,0,1,1.9-1.9h3.26c1.09,0,1.63.64,1.63,1.9V86c0,1.27-.6,1.9-1.81,1.9h-3.17c-1.21,0-1.81-.63-1.81-1.9V57.47H124.45V86C124.45,87.28,123.84,87.91,122.63,87.91Z"/><path class="cls-1" d="M186.69,87.91h-3.17c-1.15,0-1.72-.63-1.72-1.9V32.28q0-4.44,1.81-6.48t6.34-2h7.16q11.32,0,16.13,1.91a13.08,13.08,0,0,1,7.06,5.89,21,21,0,0,1,2.09,10q0,13.5-12.41,17.22L224.47,84.2a7.32,7.32,0,0,1,.91,2.35,1,1,0,0,1-.91,1.09,16.92,16.92,0,0,1-4.17.36,2.9,2.9,0,0,1-2.53-1.81L203.36,59.82C201,60,199,60,197.56,60h-9V86A1.68,1.68,0,0,1,186.69,87.91ZM198,54.12q7.6,0,11.41-1.54,6-2.55,6-10.79,0-4.8-1.49-7.15a9.1,9.1,0,0,0-4.4-3.54q-3.08-1.35-11.68-1.36H192q-3.45,0-3.45,3.54V54.12Z"/><path class="cls-1" d="M259.35,87.91h-3.26c-1.15,0-1.72-.63-1.72-1.9V32.37q0-4.53,1.86-6.57t6.38-2H288.8c1.27,0,1.9.58,1.9,1.72v2.81c0,1.09-.63,1.63-1.9,1.63H264.25q-3.09,0-3.09,3.63V53.48H285c1.27,0,1.91.58,1.91,1.72V58c0,1.09-.64,1.63-1.91,1.63H261.16V85.92C261.16,87.25,260.56,87.91,259.35,87.91Z"/><path class="cls-1" d="M346.56,75.86q-2.94,7.42-8.43,10.24t-14.9,2.81a36.53,36.53,0,0,1-11.33-1.5,17.63,17.63,0,0,1-7.83-5.25,23.51,23.51,0,0,1-4.85-10.33,73.45,73.45,0,0,1-1.54-16.45A64,64,0,0,1,299,41.57a30.69,30.69,0,0,1,3.58-9.47,17.53,17.53,0,0,1,5.71-5.75,22.72,22.72,0,0,1,7.16-3,40.12,40.12,0,0,1,8.51-.81,50.48,50.48,0,0,1,9.29.72,20.85,20.85,0,0,1,7.07,2.76,14.36,14.36,0,0,1,5.21,5.67,32.74,32.74,0,0,1,2.94,9.42,81,81,0,0,1,1,14.13Q349.5,68.43,346.56,75.86Zm-5.07-34.25a17.27,17.27,0,0,0-3.4-8.15,11.64,11.64,0,0,0-5.71-3.85,31.83,31.83,0,0,0-8.7-.95q-6.53,0-10.42,2t-6.2,8q-2.31,6-2.32,16.76a71.85,71.85,0,0,0,1.14,14.18A18.15,18.15,0,0,0,309.55,78a12.54,12.54,0,0,0,5.71,3.89,27.53,27.53,0,0,0,8.15,1,28.73,28.73,0,0,0,8.11-1,13.52,13.52,0,0,0,5.8-3.76q2.67-2.82,3.89-8.38a68.19,68.19,0,0,0,1.23-14.27A81.51,81.51,0,0,0,341.49,41.61Z"/><path class="cls-1" d="M370.07,87.91H366.9c-1.15,0-1.72-.63-1.72-1.9V32.28q0-4.44,1.81-6.48t6.34-2h7.16q11.33,0,16.13,1.91a13.14,13.14,0,0,1,7.07,5.89,21,21,0,0,1,2.08,10q0,13.5-12.41,17.22L407.85,84.2a7.32,7.32,0,0,1,.91,2.35,1,1,0,0,1-.91,1.09,16.88,16.88,0,0,1-4.16.36,2.91,2.91,0,0,1-2.54-1.81L386.74,59.82c-2.41.13-4.35.19-5.8.19h-9V86A1.68,1.68,0,0,1,370.07,87.91ZM381.4,54.12q7.61,0,11.41-1.54,6-2.55,6-10.79,0-4.8-1.49-7.15a9.1,9.1,0,0,0-4.4-3.54q-3.07-1.35-11.68-1.36h-5.8q-3.45,0-3.45,3.54V54.12Z"/><path class="cls-1" d="M426.52,87.91h-3.26c-1.09,0-1.63-.63-1.63-1.9V29.2q0-5.81,4.89-5.8h1.63c1.69,0,2.85.35,3.49,1a19.59,19.59,0,0,1,2.49,4.49Q447.54,59.1,450,65.62q2-5,15.86-36.6c.42-1,.77-1.8,1-2.31A13.07,13.07,0,0,1,468,25a3.68,3.68,0,0,1,1.63-1.27,6.23,6.23,0,0,1,2.22-.36h1.72c1.87,0,3.11.44,3.72,1.31a8.32,8.32,0,0,1,.9,4.49V85.92c0,1.33-.6,2-1.81,2h-3.17c-1.15,0-1.72-.66-1.72-2q0-44.94.27-55.9-3,7.88-17.67,41a8.27,8.27,0,0,1-1.58,2.54,2.89,2.89,0,0,1-2,.72h-1q-2.35,0-3.71-3.17Q429.5,33.73,428.06,30q.27,11.42.27,56C428.33,87.28,427.73,87.91,426.52,87.91Z"/><rect class="cls-2" width="99.98" height="99.98"/><line class="cls-2" x1="49.28" y1="76.39" x2="48.92" y2="76.39"/><path class="cls-3" d="M85.65,24.93H71.84V8.86a2.13,2.13,0,0,0-2.13-2.13H14.33A2.13,2.13,0,0,0,12.2,8.86V61.09h0V79.85h0V91.12a2.13,2.13,0,0,0,2.13,2.13H85.65a2.13,2.13,0,0,0,2.13-2.13V27.06A2.13,2.13,0,0,0,85.65,24.93ZM83.52,89H16.46V79.85H19V61.09H16.46V11H67.58V27.06a2.13,2.13,0,0,0,2.13,2.13H83.52Z"/><polygon class="cls-4" points="89.94 18.95 89.94 5.28 78.09 5.28 83.95 12.04 89.94 18.95"/><path class="cls-5" d="M69.71,29.19a2.13,2.13,0,0,1-2.13-2.13V11H16.46V89H83.52V29.19Z"/></g></g></svg>