<svg width="258" height="223" viewBox="0 0 258 223" fill="none" xmlns="http://www.w3.org/2000/svg">
<g clip-path="url(#clip0_107_2)">
<path d="M196.64 110C201.155 111.495 205.788 112.605 210.49 113.32C207.49 103.32 203.85 97.1 200.19 93.32L196.59 95.58L199.15 92.33C189.15 83.33 179.15 91.69 179.15 91.69C178.832 93.1689 178.831 94.6985 179.148 96.1777C179.465 97.6568 180.093 99.0517 180.99 100.27L184.8 97.88L181.95 101.49C185.02 104.99 190 107.55 194.95 109.38L199.3 106.65L196.64 110Z" fill="white" stroke="#020202" stroke-width="0.5" stroke-miterlimit="10"/>
<path d="M219.65 72.66L214.47 74.81L218.47 70.36C214.35 63.12 205.78 57.73 189.29 57.95C189.29 57.95 186.71 63.22 191.97 74.34L196.04 74.21L192.74 75.9C196.131 82.1725 200.282 88.0032 205.1 93.26L210.31 92.11L206.62 95C209.71 98.41 213.33 102.06 217.55 106C217.55 105.92 225.68 86.76 219.65 72.66Z" fill="white" stroke="#020202" stroke-width="0.5" stroke-miterlimit="10"/>
<path d="M189.53 58.11C189.53 58.11 186.6 56.11 203.19 68.36C219.78 80.61 218.07 125.44 218.07 125.44L217.33 139.9" stroke="#020202" stroke-width="0.5" stroke-miterlimit="10"/>
<path d="M252.73 96.88L254.57 99.67C257.134 95.8145 258.119 91.121 257.32 86.56C257.32 86.56 245.77 79.34 235.61 89.33L238.38 93.26L234.49 90.51C228.903 97.8379 225.192 106.42 223.68 115.51C224.967 115.518 226.254 115.438 227.53 115.27C230.62 114.844 233.616 113.898 236.39 112.47L235.31 108.02L237.85 111.88C243.61 109.5 249.85 105.94 253.71 100.83L252.73 96.88Z" fill="white" stroke="#020202" stroke-width="0.5" stroke-miterlimit="10"/>
<path d="M257.34 86.53C237.09 89.34 218.07 125.07 218.07 125.07" stroke="#020202" stroke-width="0.5" stroke-miterlimit="10"/>
<path d="M218.11 125C214.916 119.227 211.136 113.798 206.83 108.8C200.44 101.41 190.83 90.28 180.15 91.57C179.71 91.63 179.34 91.69 179.15 91.74" stroke="#020202" stroke-width="0.5" stroke-miterlimit="10"/>
<path d="M230.07 134.91H205.14L207.57 222.18H227.64L230.07 134.91Z" fill="#49495B"/>
<path d="M109.34 52.63L102.34 57.83L102.11 57.7C98.3401 55.49 95.4701 53.29 94.8601 52.9C93.4373 51.7095 92.0756 50.4479 90.7801 49.12C90.6794 48.9342 90.6267 48.7263 90.6267 48.515C90.6267 48.3037 90.6794 48.0958 90.7801 47.91C91.0101 47.62 91.9801 47.36 92.2501 48.08C92.5201 48.8 95.0001 50.39 96.0001 51C94.3984 49.6191 93.1068 47.9152 92.2101 46C91.9701 45 93.5601 44.54 93.9801 45.45C95.0976 46.801 96.3471 48.0371 97.7101 49.14C96.4901 47.76 94.7101 45.14 94.5801 43.77C94.3701 41.95 95.8101 43.01 95.9401 43.53C96.8567 44.8762 97.8587 46.1622 98.9401 47.38C97.8701 45.72 96.9401 42.58 97.7601 41.53C98.8201 40.23 100.16 45.17 100.99 46.22C102.242 47.5009 103.579 48.6969 104.99 49.8C104.99 49.8 103.42 44.8 105.33 44.75C106.77 44.67 108.53 49.69 109.33 52.14L109.34 52.63Z" fill="white" stroke="#050606" stroke-width="0.8" stroke-linecap="round" stroke-linejoin="round"/>
<path d="M197.63 138.22H119.97V222.09H197.63V138.22Z" fill="#F6F5E6" stroke="#020202" stroke-width="0.65" stroke-miterlimit="10"/>
<path d="M125.04 166.97H47.3799V221.98H125.04V166.97Z" fill="#DFA36A" stroke="#020202" stroke-width="0.8" stroke-miterlimit="10"/>
<path d="M251.91 222.35H0.209961" stroke="#231F20" stroke-width="0.41" stroke-linecap="round" stroke-linejoin="round"/>
<path d="M99.5199 171.17L98.3699 158.54L111.3 157.27L113 168.66C113 168.66 99.4699 181.89 99.5199 171.17Z" fill="white" stroke="#070808" stroke-width="0.7" stroke-linecap="round" stroke-linejoin="round"/>
<mask id="mask0_107_2" style="mask-type:alpha" maskUnits="userSpaceOnUse" x="89" y="168" width="26" height="15">
<path d="M98.9 170.81C98.9 170.81 89 173.57 89 176.47C89 179.37 89.49 183.06 95.58 181.88C101.67 180.7 112.39 178.69 114.81 177.26L113.52 168.18C113.52 168.18 101.25 173.77 98.9 170.81Z" fill="#A15E49"/>
</mask>
<g mask="url(#mask0_107_2)">
<path d="M98.9 170.81C98.9 170.81 89 173.57 89 176.47C89 179.37 89.49 183.06 95.58 181.88C101.67 180.7 112.39 178.69 114.81 177.26L113.52 168.18C113.52 168.18 101.25 173.77 98.9 170.81Z" fill="#A15E49"/>
<path d="M88.78 179.54C88.78 179.54 89.09 183.47 116.69 174.54" stroke="white" stroke-width="0.7" stroke-linecap="round" stroke-linejoin="round"/>
<path d="M92.5601 172.8C92.5601 172.8 95.9101 173.46 96.2901 174.89" stroke="white" stroke-width="0.7" stroke-linecap="round" stroke-linejoin="round"/>
<path d="M96.3101 170.81C96.3101 170.81 99.5501 172.51 99.3901 174.22" stroke="white" stroke-width="0.7" stroke-linecap="round" stroke-linejoin="round"/>
</g>
<mask id="mask1_107_2" style="mask-type:alpha" maskUnits="userSpaceOnUse" x="97" y="38" width="94" height="80">
<path d="M182.89 39.51C171.65 37.9946 160.233 38.4515 149.15 40.86L144.15 45.1C124.87 61.47 133.67 54.63 127.95 59.37C125.95 61.01 122.28 64.01 122.76 64.65C122.805 64.7085 122.868 64.7506 122.94 64.77C122.94 64.77 113.69 54.36 109.44 50.5L97.4399 59.37C97.4399 59.37 115.56 85.59 120.58 82.89C125.6 80.19 141.4 75.95 144.48 64.77C144.965 71.2957 145.032 77.8457 144.68 84.38C144.311 91.3761 143.466 98.3389 142.15 105.22C143.955 108.282 146.393 110.924 149.3 112.97C162.94 122.44 181.3 113.64 182.66 112.97L188.44 109.88C193.141 86.3589 191.205 61.9939 182.85 39.51H182.89Z" fill="#DFA36A"/>
</mask>
<g mask="url(#mask1_107_2)">
<path d="M182.89 39.51C171.65 37.9946 160.233 38.4515 149.15 40.86L144.15 45.1C124.87 61.47 133.67 54.63 127.95 59.37C125.95 61.01 122.28 64.01 122.76 64.65C122.805 64.7085 122.868 64.7506 122.94 64.77C122.94 64.77 113.69 54.36 109.44 50.5L97.4399 59.37C97.4399 59.37 115.56 85.59 120.58 82.89C125.6 80.19 141.4 75.95 144.48 64.77C144.965 71.2957 145.032 77.8457 144.68 84.38C144.311 91.3761 143.466 98.3389 142.15 105.22C143.955 108.282 146.393 110.924 149.3 112.97C162.94 122.44 181.3 113.64 182.66 112.97L188.44 109.88C193.141 86.3589 191.205 61.9939 182.85 39.51H182.89Z" fill="#DFA36A"/>
<path d="M182.115 38.9701C182.115 38.9701 181.797 44.8411 183 49" stroke="black" stroke-width="0.8" stroke-linecap="round" stroke-linejoin="round"/>
<path d="M150.07 39.08C150.07 39.08 147.46 49.78 146.89 51.22" stroke="black" stroke-width="0.8" stroke-linecap="round" stroke-linejoin="round"/>
<path d="M188.315 74.1493C186.339 65.45 185.985 62.5678 186.372 62.4591C186.759 62.3505 187.994 64.9865 191 73.4844C190.548 73.6574 190.084 73.7999 189.613 73.911C189.185 74.0146 188.752 74.0942 188.315 74.1493V74.1493Z" fill="black"/>
</g>
<path d="M143.56 67.28C143.56 67.28 144.14 58.41 144.91 56.28C145.68 54.15 145.68 63.23 143.56 67.28Z" fill="black"/>
<path d="M178 25.77L174.81 39.08C174.81 39.08 167.29 47.08 165.7 43.13C164.11 39.18 165.41 38.93 165.41 38.93L169.46 26.21L178 25.77Z" fill="white" stroke="#231F20" stroke-width="0.8" stroke-linecap="round" stroke-linejoin="round"/>
<path d="M180.25 20.74C180.14 19.51 179.46 13.1 174.52 10.26C173.559 9.72413 172.52 9.3428 171.44 9.13C167.61 8.36 160 11.62 160 11.62L161.34 26.45C161.34 26.45 164.46 24.37 164.67 24.91C164.88 25.45 164.67 38.41 169.13 37.66C170.368 37.5724 171.582 37.2748 172.72 36.78C179.24 33 180.1 23 180.25 20.74Z" fill="white" stroke="#231F20" stroke-width="0.8" stroke-linecap="round" stroke-linejoin="round"/>
<path d="M178.67 28.69C178.67 28.69 179.98 29.96 181.11 29.56C181.85 29.29 182.17 28.45 182.54 27.07C183.473 23.7933 183.964 20.4067 184 17C184 16 183.93 15.1 183.9 14.57C183.601 13.8389 183.396 13.0728 183.29 12.29C183.18 11.47 183.24 11.05 183.19 10.47C183.047 9.31296 182.632 8.20614 181.98 7.23999C180.954 5.13933 179.408 3.33561 177.49 1.99999C174.05 -0.220006 170.2 0.419994 168.18 0.749994C164.204 1.4848 160.575 3.49238 157.84 6.46999C158.045 7.45725 158.155 8.46179 158.17 9.46999C158.17 9.68999 158.17 9.89999 158.17 10.1L158.32 10.89C158.441 11.0847 158.578 11.2687 158.73 11.44C158.993 11.7992 159.335 12.0933 159.73 12.3C160.128 12.4661 160.564 12.5181 160.99 12.45C161.776 12.3855 162.538 12.1464 163.22 11.75C164.011 11.3042 164.693 10.6896 165.22 9.94999C166.79 9.39087 168.48 9.25295 170.12 9.54999C174.12 10.33 177.31 13.84 178.57 18.55C178.816 19.6403 178.986 20.7462 179.08 21.86C179.271 24.1445 179.133 26.4447 178.67 28.69V28.69Z" fill="#231F20" stroke="#231F20" stroke-width="0.8" stroke-linecap="round" stroke-linejoin="round"/>
<path d="M164.28 24.86C165.237 24.6314 166.179 24.3442 167.1 24" stroke="#231F20" stroke-width="0.8" stroke-linecap="round" stroke-linejoin="round"/>
<path d="M165.31 30.57C165.31 30.57 167.9 31.57 170.61 28.76" stroke="#231F20" stroke-width="0.8" stroke-linecap="round" stroke-linejoin="round"/>
<path d="M125.24 79.42C125.24 79.42 120.81 82.31 119.46 81.74C116.491 80.2383 113.866 78.1374 111.75 75.57" stroke="black" stroke-width="0.8" stroke-linecap="round" stroke-linejoin="round"/>
<path d="M162 135.29C162 135.29 136.15 142.07 116.61 133.91C116.61 133.91 112.32 154.91 113.25 158.91L96.8899 159.83C96.8899 159.83 94.0099 128.43 95.4799 127.23C96.9499 126.03 109 109.93 109 109.93C109 109.93 130.64 108.15 131.2 108.12C131.76 108.09 148.86 117.93 149.37 119.59C149.88 121.25 162 135.29 162 135.29Z" fill="#1B1B3E"/>
<path d="M85.2799 137.46L89.7199 125.83L101.66 130.3L98.2499 141.07C98.2499 141.07 80.6099 146.89 85.2799 137.46Z" fill="white" stroke="#070808" stroke-width="0.69" stroke-linecap="round" stroke-linejoin="round"/>
<mask id="mask2_107_2" style="mask-type:alpha" maskUnits="userSpaceOnUse" x="72" y="136" width="27" height="14">
<path d="M84.8901 136.87C84.8901 136.87 75.0001 135 73.7201 137.58C72.4401 140.16 71.3001 143.58 77.1801 145.19C83.0601 146.8 93.3701 149.65 96.1201 149.43L98.9101 140.87C98.9101 140.87 85.6801 140.5 84.8901 136.87Z" fill="#A15E49"/>
</mask>
<g mask="url(#mask2_107_2)">
<path d="M84.8901 136.87C84.8901 136.87 75.0001 135 73.7201 137.58C72.4401 140.16 71.3001 143.58 77.1801 145.19C83.0601 146.8 93.3701 149.65 96.1201 149.43L98.9101 140.87C98.9101 140.87 85.6801 140.5 84.8901 136.87Z" fill="#A15E49"/>
<path d="M72.1999 140.2C72.1999 140.2 70.7699 143.79 98.9599 147.83" stroke="white" stroke-width="0.69" stroke-linecap="round" stroke-linejoin="round"/>
<path d="M78.4399 135.89C78.4399 135.89 81.1099 137.89 80.8299 139.35" stroke="white" stroke-width="0.69" stroke-linecap="round" stroke-linejoin="round"/>
<path d="M82.6099 135.76C82.6099 135.76 84.7299 138.65 83.8499 140.09" stroke="white" stroke-width="0.69" stroke-linecap="round" stroke-linejoin="round"/>
</g>
<path d="M187.18 109.32C187.86 114.32 188.66 124.57 184.26 132.21C183.639 133.319 182.858 134.33 181.94 135.21C180.09 136.95 176.59 139.11 165.94 138.65C160.518 138.611 155.129 137.792 149.94 136.22C134.15 131.41 121.32 121.05 115.41 115.84L101.85 134.13C94.67 133.34 89.46 130.87 89.01 127.7C88.9346 127.127 88.9963 126.544 89.19 126C94.47 110.19 97.11 102.29 102.64 98.18C105.97 95.7601 109.762 94.0514 113.781 93.1603C117.8 92.2691 121.959 92.2146 126 93C134.81 94.55 157.43 100.5 187.18 109.32Z" fill="#26234E"/>
<path d="M187.18 109.32C187.86 114.32 188.66 124.57 184.26 132.21C183.639 133.319 182.858 134.33 181.94 135.21C180.09 136.95 176.59 139.11 165.94 138.65C160.518 138.611 155.129 137.792 149.94 136.22C134.15 131.41 121.32 121.05 115.41 115.84L101.85 134.13C94.67 133.34 89.46 130.87 89.01 127.7C88.9346 127.127 88.9963 126.544 89.19 126C94.47 110.19 97.11 102.29 102.64 98.18C105.97 95.7601 109.762 94.0514 113.781 93.1603C117.8 92.2691 121.959 92.2146 126 93C134.81 94.55 157.43 100.5 187.18 109.32Z" fill="#26234E"/>
<mask id="mask3_107_2" style="mask-type:alpha" maskUnits="userSpaceOnUse" x="142" y="39" width="64" height="65">
<path d="M182.5 39.5C186.843 40.921 191.533 43.2552 194.81 46.44C200.7 52.18 202.39 58.8 203.71 64.23C205.64 72.23 207.71 80.96 202.9 89.31C198.75 96.45 191.6 99.22 187.9 100.64C181.607 102.964 174.854 103.773 168.19 103C159.078 102.183 150.303 99.152 142.63 94.17C142.28 83.68 144.42 80.23 146.68 79.17C152.41 76.54 159.5 89.24 172.97 88.47C177.447 88.2808 181.726 86.57 185.1 83.62C187.976 81.1306 189.846 77.6786 190.36 73.91C190.515 72.0466 190.318 70.1707 189.78 68.38C188.814 64.5716 186.933 61.0565 184.3 58.14L182.5 39.5Z" fill="#E0A46A"/>
</mask>
<g mask="url(#mask3_107_2)">
<path d="M182.5 39.5C186.843 40.921 191.533 43.2552 194.81 46.44C200.7 52.18 202.39 58.8 203.71 64.23C205.64 72.23 207.71 80.96 202.9 89.31C198.75 96.45 191.6 99.22 187.9 100.64C181.607 102.964 174.854 103.773 168.19 103C159.078 102.183 150.303 99.152 142.63 94.17C142.28 83.68 144.42 80.23 146.68 79.17C152.41 76.54 159.5 89.24 172.97 88.47C177.447 88.2808 181.726 86.57 185.1 83.62C187.976 81.1306 189.846 77.6786 190.36 73.91C190.515 72.0466 190.318 70.1707 189.78 68.38C188.814 64.5716 186.933 61.0565 184.3 58.14L182.5 39.5Z" fill="#E0A46A"/>
<path d="M146.431 87.9742C148.639 83.1843 149.604 78.9209 148.586 78.4515C147.567 77.9821 144.952 81.4846 142.744 86.2744C140.536 91.0642 139.571 95.3277 140.589 95.7971C141.607 96.2664 144.223 92.764 146.431 87.9742Z" fill="#020202" stroke="#020202" stroke-width="0.75" stroke-linecap="round" stroke-linejoin="round"/>
</g>
<path d="M190.36 73.9C190.36 73.9 183.82 93.52 165.89 87.59C165.89 87.59 152.95 81.38 148.5 78.96C147.534 79.0145 146.598 79.3139 145.78 79.83C143.72 81.19 143.25 83.7 142.84 86.1C142.55 87.76 142.63 94.1 142.63 94.1C142.63 94.1 168.05 111.42 193.63 97.8" stroke="black" stroke-width="0.8" stroke-linecap="round" stroke-linejoin="round"/>
<path d="M148.65 80.63L144.52 89.4H144.23C139.36 89.2 135.38 88.54 134.58 88.48C132.554 88.0636 130.551 87.5395 128.58 86.91C128.387 86.7746 128.231 86.5929 128.126 86.3815C128.021 86.1701 127.971 85.9358 127.98 85.7C128.05 85.29 128.87 84.53 129.52 85.1C130.17 85.67 133.41 85.93 134.67 86.1C132.377 85.5873 130.217 84.5993 128.33 83.2C127.58 82.34 128.9 81.06 129.78 81.73C130.4 82.19 133.51 82.96 135.39 83.4C133.46 82.69 130.34 80.99 129.49 79.76C128.33 78.09 130.3 78.38 130.7 78.81C132.301 79.6389 133.951 80.3703 135.64 81C133.72 79.93 131.12 77.35 131.42 75.86C131.77 74.03 135.69 78.18 137.06 78.78C138.943 79.387 140.864 79.8681 142.81 80.22C142.81 80.22 138.67 76.22 140.5 75.08C141.87 74.25 146.23 78.26 148.27 80.26L148.65 80.63Z" fill="white" stroke="#050606" stroke-width="0.8" stroke-linecap="round" stroke-linejoin="round"/>
<path d="M133.5 87.33L104.51 91.1L96.56 62.97L93.51 63.83L102.2 94.58L102.22 94.57V94.59L133.91 90.48L133.5 87.33Z" fill="white" stroke="#26234E" stroke-miterlimit="10"/>
<path d="M131.78 127.51C133.323 128.691 134.943 129.766 136.63 130.73C138.301 131.62 140.032 132.391 141.81 133.04C145.57 134.45 149.4 135.68 153.2 136.97C153.59 137.11 153.76 136.49 153.37 136.36C149.63 135.08 145.85 133.87 142.15 132.49C140.368 131.843 138.633 131.071 136.96 130.18C135.271 129.229 133.647 128.167 132.1 127C131.77 126.76 131.45 127.31 131.78 127.55V127.51Z" fill="white"/>
<path d="M110.25 122.81C111.421 121.777 112.533 120.679 113.58 119.52C114.1 118.94 114.58 118.34 115.09 117.73L115.81 116.82C115.92 116.66 115.99 116.45 116.22 116.49C116.45 116.53 116.55 116.82 116.62 116.91C118.357 119.143 120.594 120.938 123.15 122.15C123.52 122.33 123.85 121.78 123.48 121.6C122.032 120.916 120.686 120.034 119.48 118.98C118.9 118.482 118.355 117.944 117.85 117.37C117.44 116.9 117.06 116.14 116.45 115.88C115.84 115.62 115.45 116.21 115.17 116.64C114.64 117.33 114.09 118.01 113.51 118.64C112.364 119.951 111.131 121.184 109.82 122.33C109.51 122.61 109.97 123.06 110.28 122.79L110.25 122.81Z" fill="white"/>
</g>
<defs>
<clipPath id="clip0_107_2">
<rect width="257.83" height="222.56" fill="white"/>
</clipPath>
</defs>
</svg>
