<svg xmlns="http://www.w3.org/2000/svg" xmlns:xlink="http://www.w3.org/1999/xlink" viewBox="0 0 952.6 297.62"><defs><style>.cls-1{fill:#a15e49;}.cls-2{fill:#363957;}.cls-3{fill:#d0aea4;}.cls-33,.cls-4{fill:#e0a46a;}.cls-15,.cls-21,.cls-4,.cls-40,.cls-9{stroke:#231f20;}.cls-12,.cls-14,.cls-15,.cls-20,.cls-21,.cls-23,.cls-32,.cls-4,.cls-42,.cls-9{stroke-linecap:round;stroke-linejoin:round;}.cls-10,.cls-12,.cls-14,.cls-15,.cls-20,.cls-21,.cls-23,.cls-30,.cls-32,.cls-38,.cls-4,.cls-40,.cls-42,.cls-6,.cls-7,.cls-9{stroke-width:0.8px;}.cls-38,.cls-42,.cls-5{fill:#dfa36a;}.cls-12,.cls-15,.cls-24,.cls-32,.cls-6{fill:#fff;}.cls-10,.cls-38,.cls-42,.cls-6,.cls-7{stroke:#020202;}.cls-10,.cls-30,.cls-38,.cls-40,.cls-6,.cls-7{stroke-miterlimit:10;}.cls-14,.cls-20,.cls-30,.cls-40,.cls-7,.cls-9{fill:none;}.cls-8{fill:#49495b;}.cls-10{fill:#f6f5e6;}.cls-11{clip-path:url(#clip-path);}.cls-12{stroke:#070808;}.cls-13{clip-path:url(#clip-path-2);}.cls-14{stroke:#fff;}.cls-16{clip-path:url(#clip-path-3);}.cls-17{clip-path:url(#clip-path-4);}.cls-18{clip-path:url(#clip-path-5);}.cls-19,.cls-21{fill:#231f20;}.cls-20,.cls-23,.cls-30{stroke:#000;}.cls-22{clip-path:url(#clip-path-6);}.cls-25{clip-path:url(#clip-path-7);}.cls-26{clip-path:url(#clip-path-8);}.cls-27{clip-path:url(#clip-path-9);}.cls-28{clip-path:url(#clip-path-10);}.cls-29{clip-path:url(#clip-path-11);}.cls-31{clip-path:url(#clip-path-12);}.cls-32{stroke:#050606;}.cls-34{clip-path:url(#clip-path-13);}.cls-35{clip-path:url(#clip-path-14);}.cls-36{clip-path:url(#clip-path-15);}.cls-37{clip-path:url(#clip-path-16);}.cls-39{fill:#efd1b4;}.cls-41{clip-path:url(#clip-path-17);}</style><clipPath id="clip-path"><path class="cls-1" d="M886.58,196.4s26.81-15.69,28.12-15.27c0,0,9,19.76,8.58,21.69s-28.6,16-28.6,16S894.23,211.47,886.58,196.4Z"/></clipPath><clipPath id="clip-path-2"><path class="cls-2" d="M816.29,168.5s0,102.65,3,103.65,18.15.18,18.15.18l3.45-60,8.9,59.08,19.62-2.81s-5.87-100.22-7.7-101.66S816.29,168.5,816.29,168.5Z"/></clipPath><clipPath id="clip-path-3"><path class="cls-1" d="M820.76,281.22s-10.49,1.52-10.89,4.48-.38,6.82,6,6.41,17.63-1,20.3-2.18l-.11-9.47S822.77,284.56,820.76,281.22Z"/></clipPath><clipPath id="clip-path-4"><path class="cls-1" d="M851.88,280.27s-10.5,1.52-10.89,4.49-.38,6.81,6,6.41,17.63-1,20.3-2.18l-.12-9.47S853.89,283.62,851.88,280.27Z"/></clipPath><clipPath id="clip-path-5"><path class="cls-5" d="M867.75,99.1a5.94,5.94,0,0,0-1.5-2.08c-3.68-2-17.26-5-20.67-5.44s-17.07-.07-17.07-.07c-3.68,0-12.14.65-18.54,6.79a22.11,22.11,0,0,0-2.75,3.2c-1.85,2.61-3.25,4.88-4.22,6.53-3.79,6.5-5.19,10.85-7.26,17.3a8.52,8.52,0,0,0-.53,2.89c0,3.34,2.22,5.74,4.7,8.49,1.86,2.08,4.65,5.21,8.43,9.58q2.25-7.09,4.51-14.17a17.46,17.46,0,0,0,.71-4c.21-3.59-.75-6.89-1.08-6.85-.5,0,.48,7.55.72,18.63.5,23.11-3,26.16.17,31,7.4,11.46,35.23,11.24,49.71-2.6,2.54-2.42-.31-27.31-.31-27.31l.24.6C862,128.67,865.66,109,867.75,99.1Z"/></clipPath><clipPath id="clip-path-6"><path class="cls-1" d="M848.92,156.44s2.9,25.9,4.75,26.64,22.87,7.74,34-2.72c0,0-.89-22.13-2-24S862,154,848.92,156.44Z"/></clipPath><clipPath id="clip-path-7"><path class="cls-1" d="M146.74,284.69s11.31,3.17,11.33,6.48-.56,7.55-7.53,6.19-19.23-3.64-22-5.29L130,281.69S144.05,288.09,146.74,284.69Z"/></clipPath><clipPath id="clip-path-8"><path class="cls-1" d="M77.41,275.25S87.09,281.9,86,285s-3,7-9.12,3.43-17-9.65-19.12-12.1L62.55,267S73.77,277.59,77.41,275.25Z"/></clipPath><clipPath id="clip-path-9"><path class="cls-2" d="M128.54,150.08s-28.92-17.36-46.27,10.7l2.11,2.49-7,56.79L62.6,265.18l18.8,5.49,20.24-48.87L112.36,197c9.8,12.05,18.2,22.8,18.2,24.25,0,3.47-8.1,54.08-8.1,54.08l24.3,4.63s9.83-54.37,10.12-57.26S153.41,191.14,128.54,150.08Z"/></clipPath><clipPath id="clip-path-10"><path class="cls-5" d="M85.45,85.58a98.23,98.23,0,0,1,33.74,1.35l5,4.24c19.28,16.37,10.48,9.53,16.19,14.27,2,1.65,5.68,4.64,5.2,5.28a.34.34,0,0,1-.18.12s9.25-10.41,13.49-14.27l12,8.87S152.73,131.66,147.72,129,126.9,122,123.81,110.84c0,0,11.57,32.78,6.56,41.26,0,0-15.43,16.2-44.73,6.94L79.86,156a129.3,129.3,0,0,1,5.59-70.38Z"/></clipPath><clipPath id="clip-path-11"><path class="cls-3" d="M74.71,170.44s13-39.53,16.63-38.06,24.3,11,24,14.47-16.87,34.6-16.87,34.6S75.7,175.88,74.71,170.44Z"/></clipPath><clipPath id="clip-path-12"><path class="cls-1" d="M71.93,172s13-39.53,16.62-38.06,24.3,11,24,14.47S95.65,183,95.65,183,72.91,177.43,71.93,172Z"/></clipPath><clipPath id="clip-path-13"><rect class="cls-4" x="746.8" y="34.02" width="28.14" height="17.3" transform="translate(6.2 148.56) rotate(-11.2)"/></clipPath><clipPath id="clip-path-14"><rect class="cls-4" x="888.03" y="92.72" width="28.14" height="17.3" transform="translate(42.34 -189.96) rotate(12.31)"/></clipPath><clipPath id="clip-path-15"><rect class="cls-4" x="173.63" y="89.03" width="28.14" height="17.3" transform="translate(25.14 -37.77) rotate(12.31)"/></clipPath><clipPath id="clip-path-16"><rect class="cls-4" x="76.55" y="10.56" width="28.14" height="17.3" transform="translate(6.18 -18.88) rotate(12.31)"/></clipPath><clipPath id="clip-path-17"><polygon class="cls-5" points="159.16 158.76 159.16 200.29 159.16 241.82 159.16 283.34 219.56 283.34 219.56 241.82 219.56 200.29 219.56 158.76 159.16 158.76"/></clipPath></defs><g id="Layer_2" data-name="Layer 2"><g id="Layer_1-2" data-name="Layer 1"><path class="cls-6" d="M28.7,169.55a133.72,133.72,0,0,0,22.07,5.3C45.94,158.93,40.2,149,34.36,143l-5.74,3.59,4.09-5.17c-15.88-14.3-31.94-1-31.94-1a17,17,0,0,0,2.94,13.67l6.08-3.8L5.24,156c4.89,5.58,12.83,9.66,20.73,12.57l6.93-4.34Z"/><path class="cls-6" d="M65.37,110l-8.26,3.43,6.44-7.09C57,94.83,43.33,86.24,17.07,86.59c0,0-4.13,8.39,4.26,26.11l6.49-.21-5.26,2.69c3.92,7.62,10.07,16.82,19.62,27.66l8.3-1.83-5.88,4.54C49.54,151,55.29,156.79,62,163,62,163,75,132.49,65.37,110Z"/><path class="cls-7" d="M62.84,194.1s2.72-71.5-23.7-90.93S17.38,86.85,17.38,86.85"/><path class="cls-6" d="M118.07,148.61,121,153a28.7,28.7,0,0,0,4.39-20.88s-18.4-11.5-34.59,4.41l4.41,6.26L89,138.46a90.3,90.3,0,0,0-17.22,39.9,42.25,42.25,0,0,0,6.14-.38A43.88,43.88,0,0,0,92,173.52l-1.73-7.08,4,6.15c9.18-3.81,19.08-9.48,25.26-17.61Z"/><path class="cls-7" d="M125.4,132.12c-32.25,4.47-62.56,61.4-62.56,61.4"/><path class="cls-7" d="M62.91,193.39a152.52,152.52,0,0,0-18-25.81C34.77,155.8,19.47,138.07,2.45,140.13c-.72.09-1.3.19-1.68.27"/><polygon class="cls-8" points="92.89 186.46 32.79 186.46 38.65 283.34 87.03 283.34 92.89 186.46"/><line class="cls-9" x1="952.2" y1="283.34" x2="2.24" y2="283.34"/><rect class="cls-10" x="117.59" y="154.71" width="77.66" height="128.63"/><rect class="cls-10" x="866.18" y="154.71" width="77.66" height="128.63"/><path class="cls-1" d="M886.58,196.4s26.81-15.69,28.12-15.27c0,0,9,19.76,8.58,21.69s-28.6,16-28.6,16S894.23,211.47,886.58,196.4Z"/><g class="cls-11"><path class="cls-9" d="M890.37,193.15s5.67,10.14,5.81,14.41"/><path class="cls-9" d="M894.72,189.75s7.22,13.77,7.39,19.57"/><path class="cls-9" d="M899.73,187.46s5.67,10.13,5.81,14.4"/><path class="cls-9" d="M904.43,185.54s7.32,13,7.5,18.49"/><path class="cls-9" d="M908.67,183.39s6.86,13.54,7,19.26"/></g><path class="cls-12" d="M821.12,282l.52-13.83,13.52.42.23,12.57S819.63,293.57,821.12,282Z"/><path class="cls-12" d="M852.46,280.72l.5-13.08,13.41.41.23,11.89S851,291.7,852.46,280.72Z"/><path class="cls-2" d="M816.29,168.5s0,102.65,3,103.65,18.15.18,18.15.18l3.45-60,8.9,59.08,19.62-2.81s-5.87-100.22-7.7-101.66S816.29,168.5,816.29,168.5Z"/><g class="cls-13"><path class="cls-14" d="M840.76,205l-1.22-22.21a61,61,0,0,0-5.72-4.12"/><line class="cls-14" x1="863.6" y1="207.05" x2="866.76" y2="262.75"/></g><path class="cls-15" d="M805.9,136l4.1,4.77c1.31,1.75,2.47,3.11,3.37,4.09.32.36.52.56.82.59,1.46.15,2.87-3.94,3.6-6.92,1.71-7-3.19-3.7-3.19-3.7l-3.69-3.13Z"/><path class="cls-1" d="M820.76,281.22s-10.49,1.52-10.89,4.48-.38,6.82,6,6.41,17.63-1,20.3-2.18l-.11-9.47S822.77,284.56,820.76,281.22Z"/><g class="cls-16"><path class="cls-14" d="M808.79,288.73s-.21,4.07,29.25-1.43"/><path class="cls-14" d="M813.48,282.26s3.35,1.12,3.55,2.64"/><path class="cls-14" d="M817.59,280.72s3.09,2.17,2.7,3.9"/></g><path class="cls-1" d="M851.88,280.27s-10.5,1.52-10.89,4.49-.38,6.81,6,6.41,17.63-1,20.3-2.18l-.12-9.47S853.89,283.62,851.88,280.27Z"/><g class="cls-17"><path class="cls-14" d="M840.35,287.87s-.2,4.07,29.25-1.43"/><path class="cls-14" d="M845.11,281.47s3.35,1.12,3.55,2.64"/><path class="cls-14" d="M849.22,279.93s3.1,2.17,2.71,3.91"/></g><path class="cls-5" d="M867.75,99.1a5.94,5.94,0,0,0-1.5-2.08c-3.68-2-17.26-5-20.67-5.44s-17.07-.07-17.07-.07c-3.68,0-12.14.65-18.54,6.79a22.11,22.11,0,0,0-2.75,3.2c-1.85,2.61-3.25,4.88-4.22,6.53-3.79,6.5-5.19,10.85-7.26,17.3a8.52,8.52,0,0,0-.53,2.89c0,3.34,2.22,5.74,4.7,8.49,1.86,2.08,4.65,5.21,8.43,9.58q2.25-7.09,4.51-14.17a17.46,17.46,0,0,0,.71-4c.21-3.59-.75-6.89-1.08-6.85-.5,0,.48,7.55.72,18.63.5,23.11-3,26.16.17,31,7.4,11.46,35.23,11.24,49.71-2.6,2.54-2.42-.31-27.31-.31-27.31l.24.6C862,128.67,865.66,109,867.75,99.1Z"/><g class="cls-18"><path class="cls-19" d="M812.74,132.85,811,124.59s-.9-1.73,3.3-15.91C814.29,108.68,815.33,107.31,812.74,132.85Z"/><path class="cls-20" d="M867.66,98.41s-5.69,6.07-5.06,9.11"/><path class="cls-20" d="M816.85,92.64s-2.17,6.62-1.43,8.5"/><path class="cls-20" d="M814.07,167.52a17,17,0,0,0,5.65,6.65c1.41,1,3.85,2.29,9.32,2.88a42.47,42.47,0,0,0,20.25-2.52c10.71-4.11,13-8.51,13-11.58,0,0,0-.14-1.48-4h0"/><path class="cls-19" d="M862.92,142.08s-2.21-10.18-2-15.18.4-12.44,1-12.89c0,0,0,0,0,0,.34,0,.53,5.67.7,12.73C862.73,130.35,862.84,135.6,862.92,142.08Z"/></g><path class="cls-15" d="M829.34,82.52s-1.24,6.49-.83,9,11.19,6.3,14.59.17c0,0-2.87-10.62-3.93-11.73S829.34,82.52,829.34,82.52Z"/><path class="cls-15" d="M823,55.84s.73,22.68,4.25,24.62,4.31,8.32,9.87,2.86S843.24,65,843.24,65l-3.41-7.06-6.91-3.41Z"/><path class="cls-21" d="M812.37,44s3.26,13.42,9.8,12.48a15.49,15.49,0,0,0,14.7,1.73s4.44,2.74,4.39,5.06.08,9.94,1.81,9.2c0,0-2.09,2.9.21,4.35s3.64-3.18,3.05-4.74c0,0,5.83-10.73,1.47-9.75,0,0,1.59-8.8-3.13-6,0,0,1.64-10.83-4.21-5.84,0,0-.4-16.46-11.69-4.61,0,0-2-14.32-9.4-9.68S812.56,42.11,812.37,44Z"/><path class="cls-1" d="M866.08,96.84c-4,.37-9.29,2.36-11.2,4.84-7.46,9.63-2,57.37-2,57.37.9,1.42,4.19.33,4.19.33-3.68-54,.5-52.74,1.25-54.82s5.64-5.68,9.07-6.27A6.47,6.47,0,0,0,866.08,96.84Z"/><path class="cls-1" d="M848.92,156.44s2.9,25.9,4.75,26.64,22.87,7.74,34-2.72c0,0-.89-22.13-2-24S862,154,848.92,156.44Z"/><g class="cls-22"><path class="cls-20" d="M851.78,156.93s2.08,18,2.92,18.51,28.55.07,29.58-1-2.51-19.56-2.51-19.56c-6.25-.05-11.28,0-14.88.15-2.87.09-4.9.18-7.16.35-3.27.24-6,.56-8,.82Z"/><path class="cls-20" d="M857.31,152.37s.38,17.46,1.86,17.57,18.3.34,18.78-.35-1.06-18.26-1.06-18.26l-19.26,1Z"/><polygon class="cls-20" points="862.22 158.29 862.4 160.78 873.5 160.49 873.17 157.84 862.22 158.29"/></g><path class="cls-15" d="M903.17,188.47c1.22.53,2.39.78,2.57-.15.4-2-5-4.28-5-4.28a1.76,1.76,0,0,0-.69,0l-10.37-23.18-6.77,8,.17.34,10.75,20.86s4,17.54,5.65,17.5-1.26-9.34-1.26-9.34,3.07,8.22,4.08,8.17-1.41-9.35-1.41-9.35,2.55,7.35,4.17,7.78c1.29.34-.31-5.47-1.35-7.91,1.22,2.06,3.87,6.4,4.41,6.12S906.17,192.28,903.17,188.47Z"/><path class="cls-5" d="M867.75,99.1C865.66,109,862,128.67,863,141.61c1.77,4.58,13.5,34.49,16.65,34.85,3.4.39,12.12-14.62,12.12-14.62S873.87,110.3,867.75,99.1Z"/><path class="cls-23" d="M825.17,74.52s-.88,11.61.23,10.71-1,8.82.31,6.68-.35,8.83.93,6.85c.88-1.36,1.72,4.82,2.17,7.06.21,1.06.33,1.24.32-.65,0,0,.76.8,1-4.78,0,0-.3,6.66.66,5.29s1-5.25,1-5.25,1.35,8.72,1.73,5.78.91-5.72.92-6.19-.34,8.22.64,5.91.61-6.19.61-6.19.42,8.7.94,6.38a40.35,40.35,0,0,0,.6-6s-.92,6.19.55,3.28.46-6.67.46-6.67.22,3.89,1,2.82-.43-8.23-.43-8.23,1.3,3.9,1.79,2.83-.12-8.23-.58-8.7,1.13,5.3,1.37,1.58a65,65,0,0,0-.67-11.5C840.54,74.4,835.08,68.69,825.17,74.52Z"/><path class="cls-24" d="M829.87,76.33s2.65,2.54,6.25-.17S829.87,76.33,829.87,76.33Z"/><path class="cls-9" d="M801.72,113.24c-5,8.87-5.71,17.6-1.66,21.84a8.68,8.68,0,0,0,3.44,2.18"/><path class="cls-9" d="M879.53,130.72s10.12,29.44,11.18,30.28"/><path class="cls-15" d="M165.37,91s-2,3.53-1.72,4,.75,2.2,3.42-2.25c0,0,1.48-1.61.38-2.32S165.7,90.1,165.37,91Z"/><path class="cls-15" d="M167.89,92.89s-2.84,2.91-2.69,3.46.17,2.33,3.88-1.3c0,0,1.84-1.19,1-2.16S168.44,92.09,167.89,92.89Z"/><path class="cls-12" d="M146,285.11l1.31-14.45-14.79-1.46-1.95,13S146.09,297.38,146,285.11Z"/><path class="cls-1" d="M146.74,284.69s11.31,3.17,11.33,6.48-.56,7.55-7.53,6.19-19.23-3.64-22-5.29L130,281.69S144.05,288.09,146.74,284.69Z"/><g class="cls-25"><path class="cls-14" d="M158.32,294.69s-.35,4.5-31.93-5.74"/><path class="cls-14" d="M154,287s-3.84.76-4.27,2.4"/><path class="cls-14" d="M149.71,284.7s-3.71,1.94-3.53,3.9"/></g><path class="cls-12" d="M76.61,275.42l5.9-13.26L69,256l-6.05,11.71S72.7,287.05,76.61,275.42Z"/><path class="cls-1" d="M77.41,275.25S87.09,281.9,86,285s-3,7-9.12,3.43-17-9.65-19.12-12.1L62.55,267S73.77,277.59,77.41,275.25Z"/><g class="cls-26"><path class="cls-14" d="M85.14,288.44s-1.78,4.15-28.37-15.72"/><path class="cls-14" d="M83.54,279.75s-3.88-.52-4.82.89"/><path class="cls-14" d="M80.21,276.21s-4.13.64-4.6,2.56"/></g><path class="cls-15" d="M158.38,99.83s2.89-12,5.82-12,12,4.6,8.27,9.16a46.12,46.12,0,0,1-7,7.09S158.38,103.08,158.38,99.83Z"/><path class="cls-15" d="M167.21,101.92s-.69-2,.16-2.65c0,0-3.35-3.71-2-4.08s3.75,1.15,4.15,2.15l.39,1"/><path class="cls-15" d="M164.77,86.89s-2.26,4.38-2,5,.42,2.22,4.8-4.48C167.62,87.46,166.89,85,164.77,86.89Z"/><path class="cls-15" d="M167.05,88.71s-2,3.53-1.73,4,.76,2.2,3.42-2.25c0,0,1.48-1.62.38-2.33S167.38,87.8,167.05,88.71Z"/><path class="cls-2" d="M128.54,150.08s-28.92-17.36-46.27,10.7l2.11,2.49-7,56.79L62.6,265.18l18.8,5.49,20.24-48.87L112.36,197c9.8,12.05,18.2,22.8,18.2,24.25,0,3.47-8.1,54.08-8.1,54.08l24.3,4.63s9.83-54.37,10.12-57.26S153.41,191.14,128.54,150.08Z"/><g class="cls-27"><path class="cls-14" d="M114.75,200.11s-14-12.92-13.88-17.45.48-13,.48-13"/><path class="cls-14" d="M77.35,220.06s5.4.29,6,2.61"/><path class="cls-14" d="M142.13,217.85s14.65,1.92,15.62,5.2"/></g><path class="cls-5" d="M85.45,85.58a98.23,98.23,0,0,1,33.74,1.35l5,4.24c19.28,16.37,10.48,9.53,16.19,14.27,2,1.65,5.68,4.64,5.2,5.28a.34.34,0,0,1-.18.12s9.25-10.41,13.49-14.27l12,8.87S152.73,131.66,147.72,129,126.9,122,123.81,110.84c0,0,11.57,32.78,6.56,41.26,0,0-15.43,16.2-44.73,6.94L79.86,156a129.3,129.3,0,0,1,5.59-70.38Z"/><g class="cls-28"><path class="cls-20" d="M82.62,107s-2,6.69-4.56,9.49"/><path class="cls-20" d="M85.74,85.1s.38,6-2.13,10.22"/><path d="M124.78,113.35s-.58-8.87-1.35-11S122.66,109.3,124.78,113.35Z"/><path class="cls-20" d="M118.27,85.15s2.6,10.7,3.18,12.15"/></g><path class="cls-1" d="M76.21,170s13-39.53,16.62-38,24.3,11,24,14.47-16.88,34.59-16.88,34.59S77.19,175.48,76.21,170Z"/><path class="cls-3" d="M74.71,170.44s13-39.53,16.63-38.06,24.3,11,24,14.47-16.87,34.6-16.87,34.6S75.7,175.88,74.71,170.44Z"/><g class="cls-29"><path class="cls-30" d="M88.92,133.55A115.7,115.7,0,0,1,102,139.92c3.37,1.91,6.42,3.86,9.15,5.76a3.81,3.81,0,0,1,1.67,2.28c.23,1-.13,1.9-.86,3.64a21.87,21.87,0,0,1-1.26,2.53q-3.9,7.83-7.79,15.67-3.21,6-6.43,11.92"/></g><path class="cls-1" d="M71.93,172s13-39.53,16.62-38.06,24.3,11,24,14.47S95.65,183,95.65,183,72.91,177.43,71.93,172Z"/><g class="cls-31"><path class="cls-20" d="M72.08,167.83s15.24,10.11,19.68,10.11"/><path class="cls-20" d="M73.83,163.11s16.86,9.44,20,9.3"/><path class="cls-20" d="M75.59,158s15.1,10.65,19.14,8.89"/><path class="cls-20" d="M83,139.11s21.44,11.6,24.81,11.73"/><path class="cls-20" d="M79.63,146s20.09,11.19,24.54,11.19"/></g><path class="cls-32" d="M88.5,143.6s8.27.84,8.48,2.56-4.47,1.09-4.47,1.09a35.2,35.2,0,0,0,3.82,3c1.07.58,5.71,1,4.71,2.18s-5.32.3-6.35-.68a53.54,53.54,0,0,0,4.83,2.58c.48,0,1.66,1.17,0,1.26s-6-2.08-6.25-2.76c0,0,4,3.33,4.83,3.56s.71,1.73-.21,1.68a13,13,0,0,1-5.32-2.92s2.78,3,3.46,3.13.61,1,.38,1.3a1.18,1.18,0,0,1-1.07.22,46.17,46.17,0,0,1-4-3.08,71.15,71.15,0,0,1-8-9.12C80,142.9,88.5,143.6,88.5,143.6Z"/><path class="cls-33" d="M85.45,85.58a55.66,55.66,0,0,0-13.89,9.64,53.8,53.8,0,0,0-11.37,15.43c-3.23,6.73-6.77,14.12-4.7,22.68,2.91,12,14.79,17.65,16.85,18.58,0,0,10,5.78,12.34,4.62s4.24-13.11,4.24-13.11a61.57,61.57,0,0,1-9.52-5.82c-3.84-2.93-7.19-6.58-6.29-10a49.12,49.12,0,0,1,5.78-13.11Z"/><path class="cls-20" d="M61.08,142.72s-8.1-10.6-2.12-27"/><path class="cls-15" d="M90.36,71.85l3.18,13.3s7.52,7.95,9.11,4,.29-4.2.29-4.2l-4-12.72Z"/><path class="cls-15" d="M82.34,62.81C82,61.62,80.25,55.41,83.78,51a10.51,10.51,0,0,1,2.44-2.19c3.28-2.13,11.57-1.93,11.57-1.93h0L102,61.1s-3.67-.77-3.67-.2,5,12.54.58,13.5a10.78,10.78,0,0,1-3.65.51C87.81,73.8,83.32,64.87,82.34,62.81Z"/><path class="cls-21" d="M86.75,69.6s-1.74,3.91-4.2-.07-5.56-10.26-4-11.85-.66-6-.51-5.64,0-4.34,2.46-3.69,2.67-5,5.13-4.7,9.69.07,10.41-.94,8.75-4.41,10.27-1.66-1.45,6.72-2.39,6.07-1.15,2.53-2.74,1.16-2-2.17-3.33-.94-4.7.21-5.5-.15c0,0-3.9,1.74-4.69,1.45S81,53.55,82.12,61.07A23.54,23.54,0,0,1,86.75,69.6Z"/><path class="cls-9" d="M98.7,60.71a23.43,23.43,0,0,1-2.94.24"/><path class="cls-9" d="M99.86,66.4s-2,1.93-5.59.29"/><path class="cls-20" d="M143.09,125.49s4.44,2.9,5.79,2.32a24.07,24.07,0,0,0,7.71-6.17"/><rect class="cls-33" x="746.8" y="34.02" width="28.14" height="17.3" transform="translate(6.2 148.56) rotate(-11.2)"/><g class="cls-34"><polygon class="cls-4" points="761.52 45.93 773.08 31.34 745.27 36.85 761.52 45.93"/></g><rect class="cls-9" x="746.8" y="34.02" width="28.14" height="17.3" transform="translate(6.2 148.56) rotate(-11.2)"/><circle class="cls-9" cx="855.12" cy="44.62" r="3.44"/><rect class="cls-4" x="749.18" y="96.4" width="24.62" height="32.36" transform="translate(27.03 -117.86) rotate(9.01)"/><line class="cls-9" x1="753.08" y1="101.01" x2="771.06" y2="103.86"/><line class="cls-9" x1="752.38" y1="105.42" x2="770.36" y2="108.27"/><line class="cls-9" x1="751.68" y1="109.83" x2="769.66" y2="112.69"/><line class="cls-9" x1="750.98" y1="114.25" x2="768.96" y2="117.1"/><line class="cls-9" x1="758.22" y1="124.35" x2="763.7" y2="125.22"/><line class="cls-9" x1="750.61" y1="123.09" x2="756.09" y2="123.96"/><circle class="cls-9" cx="765.32" cy="64.24" r="4.45"/><circle class="cls-9" cx="886.13" cy="80.15" r="4.45"/><circle class="cls-9" cx="772.8" cy="154.31" r="3.44"/><rect class="cls-33" x="888.03" y="92.72" width="28.14" height="17.3" transform="translate(42.34 -189.96) rotate(12.31)"/><g class="cls-35"><polygon class="cls-4" points="901.39 104.63 917.8 95.86 890.12 89.81 901.39 104.63"/></g><rect class="cls-9" x="888.03" y="92.72" width="28.14" height="17.3" transform="translate(42.34 -189.96) rotate(12.31)"/><rect class="cls-4" x="154.36" y="30.94" width="24.62" height="32.36"/><line class="cls-9" x1="156.55" y1="37.01" x2="174.76" y2="37.01"/><line class="cls-9" x1="156.55" y1="41.47" x2="174.76" y2="41.47"/><line class="cls-9" x1="156.55" y1="50.41" x2="174.76" y2="50.41"/><line class="cls-9" x1="157.57" y1="59.2" x2="163.11" y2="59.2"/><circle class="cls-9" cx="791.41" cy="3.84" r="3.44"/><path class="cls-19" d="M731,80a144.41,144.41,0,0,0,17.12-7.08.41.41,0,0,0-.2-.75,6.18,6.18,0,0,0-5,3.28c-1.33,2.31-1.25,5-.78,7.59.38,2,.74,5.59,2.95,6.54s5.35-1,7.36-1.92l4.69-2c1.55-.67,3.62-2,5.32-1.15,2.8,1.47,2.45,5.51,3.66,8,2.07,4.25,7,6.06,11.26,7.21,5.22,1.41,11.75,2.53,14.3,8,.22.46.91.06.69-.41-4.11-8.74-16.26-6.6-22.94-12-2.17-1.74-3-3.93-3.62-6.57-.46-2-1.26-4.31-3.36-5.11a3.93,3.93,0,0,0-2.84.1c-1.43.52-2.82,1.21-4.22,1.81l-4.24,1.85C749.78,88,748.12,89,746.5,89c-2.15,0-2.57-2.3-3-4a20.49,20.49,0,0,1-.81-5.34c.06-3,1.83-6.56,5.25-6.77l-.21-.74a142.73,142.73,0,0,1-16.92,7c-.48.16-.27.94.21.77Z"/><rect class="cls-33" x="173.63" y="89.03" width="28.14" height="17.3" transform="translate(25.14 -37.77) rotate(12.31)"/><g class="cls-36"><polygon class="cls-4" points="186.99 100.93 203.41 92.16 175.72 86.12 186.99 100.93"/></g><rect class="cls-9" x="173.63" y="89.03" width="28.14" height="17.3" transform="translate(25.14 -37.77) rotate(12.31)"/><rect class="cls-4" x="37.05" y="34.18" width="24.62" height="32.36" transform="translate(-11.02 13.95) rotate(-14.48)"/><line class="cls-9" x1="37.04" y1="43.1" x2="54.67" y2="38.54"/><line class="cls-9" x1="38.15" y1="47.42" x2="55.78" y2="42.87"/><line class="cls-9" x1="39.27" y1="51.74" x2="56.9" y2="47.19"/><line class="cls-9" x1="40.39" y1="56.07" x2="58.02" y2="51.52"/><line class="cls-9" x1="51.06" y1="62.45" x2="56.43" y2="61.06"/><line class="cls-9" x1="43.57" y1="64.33" x2="48.95" y2="62.94"/><rect class="cls-33" x="76.55" y="10.56" width="28.14" height="17.3" transform="translate(6.18 -18.88) rotate(12.31)"/><g class="cls-37"><polygon class="cls-4" points="89.92 22.46 106.33 13.69 78.64 7.65 89.92 22.46"/></g><rect class="cls-9" x="76.55" y="10.56" width="28.14" height="17.3" transform="translate(6.18 -18.88) rotate(12.31)"/><path class="cls-19" d="M63.78,28.44a142.36,142.36,0,0,0,6.59,17.31c.16.37.75.18.74-.2a6.15,6.15,0,0,0-3.14-5c-2.27-1.4-5-1.39-7.56-1-2,.32-5.61.57-6.63,2.76a4.42,4.42,0,0,0,.07,3.2c.49,1.55,1.19,3.06,1.79,4.57l1.9,4.74c.6,1.5,1.74,3.41.84,5-1.55,2.75-5.57,2.28-8.11,3.42-4.31,2-6.25,6.81-7.53,11-1.56,5.18-2.87,11.66-8.38,14.06-.48.21-.07.9.4.69C43.61,85.17,41.84,73,47.39,66.43c1.8-2.12,4-2.88,6.68-3.41,2-.41,4.34-1.15,5.2-3.22a4,4,0,0,0,0-2.84c-.5-1.57-1.22-3.1-1.83-4.63L55.69,48c-.54-1.35-1.42-2.93-1.38-4.43,0-2.14,2.39-2.49,4-2.86a20.18,20.18,0,0,1,5.36-.65c3.06.15,6.5,2,6.6,5.45l.75-.2a141.48,141.48,0,0,1-6.51-17.12c-.15-.49-.92-.28-.77.21Z"/><path class="cls-19" d="M132.31,102c1.27-3.3,3.58-6,5.68-8.77a31.41,31.41,0,0,0,4.58-8.27c2.08-5.81,2.19-12.38-.89-17.86a.41.41,0,0,0-.73.1c-1.84,4.8-3.88,10.31-1.82,15.38,1.45,3.58,4.86,6.5,8.92,5.82s6.56-4.41,8-7.86a32.32,32.32,0,0,0,1.62-15.81c-.16-1.27-.41-2.51-.67-3.75-.2-1-.51-2.1.4-2.9a4.49,4.49,0,0,1,2-.87,12,12,0,0,1,7.94,1,11.77,11.77,0,0,1,6.15,13.24c-.4,1.41-1.55,3.11-3.26,2.25A5.35,5.35,0,0,1,168,70.51a16.5,16.5,0,0,1-.91-6.11,19.5,19.5,0,0,1,4.7-11.91,17.53,17.53,0,0,1,5.49-4.3A33.36,33.36,0,0,1,184,46.1c3.91-1,8.3-2.21,9.94-6.31.19-.48-.59-.69-.78-.22-1.72,4.31-7,5.15-11,6.16-4.22,1.06-7.93,2.74-10.85,6.07a20.51,20.51,0,0,0-4.93,11.14,18.06,18.06,0,0,0,.36,6.22c.45,1.85,1.2,4.06,2.93,5.08s3.4,0,4.18-1.59a10.61,10.61,0,0,0,.47-6.54,12.52,12.52,0,0,0-9.59-9.72,11.42,11.42,0,0,0-6.89.46c-2.36,1.08-1.87,3.1-1.43,5.23,1.2,5.81,1.13,12.48-1.09,18.06a13.31,13.31,0,0,1-4.92,6.49,6.65,6.65,0,0,1-8-.75c-5.46-4.9-2.85-12.69-.63-18.49l-.73.1c3.2,5.7,2.77,12.59.32,18.49a35.46,35.46,0,0,1-5,8.09,31,31,0,0,0-4.79,7.7c-.19.48.59.69.77.21Z"/><circle class="cls-9" cx="123.79" cy="36.8" r="3.44"/><circle class="cls-9" cx="38.85" cy="128.22" r="3.44"/><circle class="cls-9" cx="210.36" cy="134.09" r="4.45"/><circle class="cls-9" cx="59.07" cy="75.03" r="4.45"/><line class="cls-9" x1="718.43" y1="217.21" x2="718.43" y2="140.09"/><path class="cls-9" d="M718.6,181.48s-10.33-34.66-9-42.75,2.41-19.76,7.91-19.11S736.84,134.19,718.6,181.48Z"/><path class="cls-9" d="M718.57,186.3,729.09,174"/><path class="cls-9" d="M723.56,179.83s1.21-11.73,7.68-12.27S729.22,183.2,723.56,179.83Z"/><path class="cls-9" d="M718.27,192.47S706.13,176,704.38,176.15"/><path class="cls-9" d="M715,188.15s-14.56-4.85-14.83-14.29S714.36,174.53,715,188.15Z"/><polygon class="cls-8" points="729.36 283.34 707.17 283.34 702.63 195.43 733.91 195.43 729.36 283.34"/><rect class="cls-38" x="725.68" y="228.33" width="77.66" height="55.01"/><circle class="cls-39" cx="893.67" cy="39.42" r="19.25"/><circle class="cls-40" cx="893.67" cy="39.34" r="23.87"/><polyline class="cls-40" points="893.68 23.47 893.68 39.43 903.07 36.07"/><polygon class="cls-5" points="159.16 158.76 159.16 200.29 159.16 241.82 159.16 283.34 219.56 283.34 219.56 241.82 219.56 200.29 219.56 158.76 159.16 158.76"/><g class="cls-41"><rect class="cls-42" x="196.05" y="244.68" width="20.22" height="3.24" rx="0.96"/><rect class="cls-42" x="196.05" y="161.62" width="20.22" height="3.24" rx="0.96"/><rect class="cls-42" x="196.05" y="203.15" width="20.22" height="3.24" rx="0.96"/><line class="cls-30" x1="159.16" y1="241.82" x2="220.71" y2="241.82"/><line class="cls-30" x1="158.28" y1="200.42" x2="219.83" y2="200.42"/></g><path class="cls-19" d="M817.48,10c3.91.26,7.46,2,11.13,3.18a29.33,29.33,0,0,0,9.14,1.56c5.85,0,11.75-1.84,15.83-6.17a.41.41,0,0,0-.28-.69c-5-.31-10.65-.63-14.86,2.55-3.25,2.45-5.27,6.83-3.21,10.68,1.76,3.29,5.73,4.67,9.22,5.07,4.91.56,10.18-.64,14.72-2.48,1.11-.45,2.21-.95,3.28-1.51,1.55-.81,3.43-2.48,5-.86,1.89,1.94,2.57,5.21,2.43,7.82a11.82,11.82,0,0,1-9.45,10.84,5.32,5.32,0,0,1-3.69-.27c-2-1.19-.42-3.49.78-4.56A15.44,15.44,0,0,1,863.39,32a19.57,19.57,0,0,1,12.42.57,17.5,17.5,0,0,1,6.17,4,30.38,30.38,0,0,1,4.1,5.82c2.13,3.49,4.62,7.47,9.11,7.82.51,0,.51-.76,0-.8-4.78-.37-7.16-5.41-9.38-9a19.71,19.71,0,0,0-9.24-8.37,20.52,20.52,0,0,0-12.14-1.12,17.79,17.79,0,0,0-5.76,2.36c-1.62,1-3.7,2.66-3.67,4.79s2.17,2.89,4,2.84a12.13,12.13,0,0,0,6.25-2.15,12.55,12.55,0,0,0,5.36-12.15c-.31-2.14-1.17-4.82-2.91-6.23-2.09-1.7-4.49.51-6.41,1.46-5,2.44-10.93,4.07-16.49,3.52a13,13,0,0,1-7.27-2.76,6.57,6.57,0,0,1-1.8-7.5c2.78-7,11.33-6.87,17.6-6.48L853,8c-4.2,4.47-10.36,6.2-16.37,5.91a30.53,30.53,0,0,1-9.1-1.95c-3.29-1.19-6.53-2.53-10.06-2.76-.52,0-.51.77,0,.8Z"/></g></g></svg>